<svg xmlns="http://www.w3.org/2000/svg" width="360" height="640">
    <defs>
        <clipPath id="clip-path">
            <path id="Mask" transform="translate(-8596 7061)" style="opacity:.7;fill:#ffca17" d="M0 0h360v640H0z"/>
        </clipPath>
        <style>
            .cls-5{fill:#ffc120}.cls-6{opacity:.85}
        </style>
    </defs>
    <g id="background_sub_party" data-name="background / sub party" transform="translate(9060 -7061)">
        <path id="Mask-2" data-name="Mask" transform="translate(-9060 7061)" style="fill:#ffca17" d="M0 0h360v640H0z"/>
        <g id="마스크_그룹_4" data-name="마스크 그룹 4" transform="translate(-464)" style="clip-path:url(#clip-path)">
            <g id="그룹_706" data-name="그룹 706" transform="rotate(16 -30020.054 -24923.037)" style="opacity:.7">
                <g id="그룹_705" data-name="그룹 705" transform="translate(-594.383)">
                    <g id="그룹_704" data-name="그룹 704">
                        <path id="패스_181" data-name="패스 181" class="cls-5" d="M-448.484 73.737c17.439-2.928 29.99-21.941 29.99-39.126A34.65 34.65 0 0 0-453.1 0a34.65 34.65 0 0 0-34.611 34.611c0 17.184 12.551 36.2 29.99 39.126L-462.5 80.1a2.471 2.471 0 0 0-.234 2.588 2.473 2.473 0 0 0 2.212 1.367h4.759a13.551 13.551 0 0 1-1.961 4.954 17.553 17.553 0 0 0-2.8 9.879 17.555 17.555 0 0 0 2.8 9.879 12.833 12.833 0 0 1 2.146 7.426 2.471 2.471 0 0 0 2.472 2.472 2.471 2.471 0 0 0 2.472-2.472 17.555 17.555 0 0 0-2.8-9.879 12.833 12.833 0 0 1-2.146-7.426 12.835 12.835 0 0 1 2.146-7.426 18.125 18.125 0 0 0 2.61-7.407h5.132a2.473 2.473 0 0 0 2.212-1.367 2.472 2.472 0 0 0-.234-2.588zm-13.409-56.844a19.714 19.714 0 0 0-10.867 15.519 2.473 2.473 0 0 1-2.455 2.2 2.645 2.645 0 0 1-.275-.015 2.475 2.475 0 0 1-2.185-2.731A24.639 24.639 0 0 1-464.1 12.47a2.472 2.472 0 0 1 3.317 1.108 2.473 2.473 0 0 1-1.11 3.315z" transform="translate(512.438)"/>
                        <path id="패스_183" data-name="패스 183" class="cls-5" d="M-554.663 127.357c-11.927-8.329-19.942-23.621-19.942-38.049a39.277 39.277 0 0 1 2.868-14.713 2.471 2.471 0 0 0-.517-2.641 2.468 2.468 0 0 0-2.624-.6A29.759 29.759 0 0 0-594.383 99.2c0 14.761 11.031 31.695 25.849 34.247l-.865 1.731a2.467 2.467 0 0 0 .109 2.4 2.441 2.441 0 0 0 1.816 1.1 10.917 10.917 0 0 1-1.77 3.648 14.2 14.2 0 0 0-2.888 8.788 14.2 14.2 0 0 0 2.887 8.788 9.35 9.35 0 0 1 2.057 6.045 2.471 2.471 0 0 0 2.472 2.472 2.471 2.471 0 0 0 2.472-2.472 14.2 14.2 0 0 0-2.887-8.788 9.35 9.35 0 0 1-2.057-6.045 9.349 9.349 0 0 1 2.057-6.045 14.884 14.884 0 0 0 2.664-6.316h.224a2.473 2.473 0 0 0 2.1-1.173 2.467 2.467 0 0 0 .109-2.4l-.9-1.793a24.236 24.236 0 0 0 5.87-1.744 2.472 2.472 0 0 0 1.444-2.026 2.475 2.475 0 0 0-1.043-2.26z" transform="translate(594.383 -54.696)"/>
                    </g>
                </g>
            </g>
            <g id="그룹_707" data-name="그룹 707" class="cls-6" transform="rotate(-17 19690.25 29506.208)">
                <g id="그룹_705-2" data-name="그룹 705" transform="translate(-594.383)">
                    <g id="그룹_704-2" data-name="그룹 704">
                        <path id="패스_181-2" data-name="패스 181" class="cls-5" d="M-439.639 90.361c21.371-3.588 36.752-26.888 36.752-47.946A42.462 42.462 0 0 0-445.3 0a42.462 42.462 0 0 0-42.414 42.414c0 21.058 15.38 44.359 36.752 47.946l-5.849 7.8a3.028 3.028 0 0 0-.287 3.172 3.031 3.031 0 0 0 2.71 1.675h5.832a16.6 16.6 0 0 1-2.4 6.071 21.51 21.51 0 0 0-3.429 12.107 21.513 21.513 0 0 0 3.429 12.107 15.726 15.726 0 0 1 2.63 9.1 3.028 3.028 0 0 0 3.03 3.03 3.028 3.028 0 0 0 3.03-3.03 21.512 21.512 0 0 0-3.429-12.107 15.726 15.726 0 0 1-2.63-9.1 15.728 15.728 0 0 1 2.63-9.1 22.211 22.211 0 0 0 3.2-9.077h6.289a3.031 3.031 0 0 0 2.71-1.675 3.029 3.029 0 0 0-.287-3.172zM-456.071 20.7a24.159 24.159 0 0 0-13.316 19.018 3.03 3.03 0 0 1-3.009 2.7 3.243 3.243 0 0 1-.337-.018 3.033 3.033 0 0 1-2.678-3.346 30.193 30.193 0 0 1 16.636-23.769 3.029 3.029 0 0 1 4.065 1.358 3.03 3.03 0 0 1-1.361 4.057z" transform="translate(518.012)"/>
                        <path id="패스_182" data-name="패스 182" class="cls-5" d="M-199.938 140.676A30.183 30.183 0 0 0-220.826 112a3.026 3.026 0 0 0-2.9.562 3.035 3.035 0 0 0-1.044 2.763 47.859 47.859 0 0 1 .595 7.169c0 16.272-8.358 33.651-21.29 44.278a3.035 3.035 0 0 0-1.107 2.391 3.028 3.028 0 0 0 1.186 2.355 26.419 26.419 0 0 0 10.524 4.958l-1.113 2.225a3.023 3.023 0 0 0 .133 2.947 3.031 3.031 0 0 0 2.577 1.438h.323a14.733 14.733 0 0 0 3.369 6.438c1.426 1.781 2.367 2.956 2.367 5.681s-.941 3.9-2.367 5.68c-1.645 2.059-3.692 4.618-3.692 9.467a3.028 3.028 0 0 0 3.03 3.03 3.028 3.028 0 0 0 3.03-3.03c0-2.725.941-3.9 2.367-5.68 1.645-2.059 3.692-4.618 3.692-9.467s-2.047-7.408-3.692-9.467a11.923 11.923 0 0 1-1.823-2.793 2.973 2.973 0 0 0 2.032-1.3 3.023 3.023 0 0 0 .133-2.947l-1.117-2.234c14.569-3.192 25.675-20.864 25.675-35.788z" transform="translate(345.358 -80.084)"/>
                        <path id="패스_183-2" data-name="패스 183" class="cls-5" d="M-545.708 140.018c-14.615-10.207-24.438-28.947-24.438-46.627a48.131 48.131 0 0 1 3.515-18.03 3.028 3.028 0 0 0-.633-3.237 3.024 3.024 0 0 0-3.216-.74 36.468 36.468 0 0 0-23.9 34.124c0 18.089 13.518 38.84 31.676 41.968l-1.061 2.121a3.023 3.023 0 0 0 .133 2.947 2.991 2.991 0 0 0 2.225 1.346 13.38 13.38 0 0 1-2.169 4.471 17.4 17.4 0 0 0-3.539 10.769 17.406 17.406 0 0 0 3.538 10.769c1.408 2.113 2.521 3.781 2.521 7.408a3.028 3.028 0 0 0 3.03 3.03 3.028 3.028 0 0 0 3.03-3.03 17.406 17.406 0 0 0-3.538-10.769c-1.408-2.113-2.521-3.781-2.521-7.408s1.112-5.3 2.521-7.408a18.239 18.239 0 0 0 3.264-7.74h.27a3.031 3.031 0 0 0 2.577-1.438 3.023 3.023 0 0 0 .133-2.947l-1.1-2.2a29.7 29.7 0 0 0 7.193-2.137 3.029 3.029 0 0 0 1.769-2.482 3.033 3.033 0 0 0-1.28-2.76z" transform="translate(594.383 -50.976)"/>
                    </g>
                </g>
            </g>
            <g id="그룹_708" data-name="그룹 708" class="cls-6" transform="rotate(8 -55227.696 -52238.118)">
                <g id="그룹_705-3" data-name="그룹 705" transform="translate(-594.383)">
                    <g id="그룹_704-3" data-name="그룹 704">
                        <path id="패스_181-3" data-name="패스 181" class="cls-5" d="M-443.514 83.078c19.649-3.3 33.79-24.721 33.79-44.082a39.04 39.04 0 0 0-39-39 39.04 39.04 0 0 0-39 39c0 19.361 14.141 40.784 33.79 44.082l-5.378 7.171a2.784 2.784 0 0 0-.264 2.916 2.786 2.786 0 0 0 2.492 1.54h5.362a15.266 15.266 0 0 1-2.21 5.582 19.776 19.776 0 0 0-3.153 11.131 19.779 19.779 0 0 0 3.153 11.131 14.459 14.459 0 0 1 2.418 8.367 2.784 2.784 0 0 0 2.785 2.786 2.784 2.784 0 0 0 2.785-2.786 19.779 19.779 0 0 0-3.153-11.131 14.459 14.459 0 0 1-2.418-8.367 14.461 14.461 0 0 1 2.418-8.367 20.421 20.421 0 0 0 2.941-8.345h5.783a2.787 2.787 0 0 0 2.492-1.54 2.785 2.785 0 0 0-.264-2.916zm-15.108-64.046a22.212 22.212 0 0 0-12.243 17.485A2.786 2.786 0 0 1-473.631 39a2.982 2.982 0 0 1-.31-.016A2.788 2.788 0 0 1-476.4 35.9a27.76 27.76 0 0 1 15.3-21.854 2.785 2.785 0 0 1 3.73 1.254 2.786 2.786 0 0 1-1.252 3.733z" transform="translate(515.57)"/>
                    </g>
                </g>
            </g>
        </g>
    </g>
</svg>
