<svg id="Banner_party_new_party_activated_" data-name="Banner / party / new party (activated)" xmlns="http://www.w3.org/2000/svg" width="192" height="45" viewBox="0 0 192 45">
    <defs>
        <style>
            .cls-2{fill:#fff}.cls-3{fill:#e3e3e3}
        </style>
    </defs>
    <g id="Group_4" data-name="Group 4" style="isolation:isolate">
        <g id="Group">
            <rect id="Rectangle_Copy_3" data-name="Rectangle Copy 3" class="cls-2" width="192" height="45" rx="8"/>
            <rect id="Rectangle_Copy_13" data-name="Rectangle Copy 13" class="cls-3" width="30.139" height="31.605" rx="4" transform="translate(7.814 6.698)"/>
            <path id="Rectangle" class="cls-3" transform="translate(47.927 12.411)" d="M0 0h38.09v5.581H0z"/>
            <path id="Rectangle_Copy" data-name="Rectangle Copy" class="cls-3" transform="translate(159.628 13.912)" d="M0 0h20.093v5.581H0z"/>
            <path id="Rectangle_Copy_2" data-name="Rectangle Copy 2" class="cls-3" transform="translate(48.269 26.666)" d="M0 0h75.32v5.581H0z"/>
        </g>
    </g>
    <g id="그룹_834" data-name="그룹 834" transform="translate(13.117 8.97)">
        <g id="그룹_704" data-name="그룹 704" transform="rotate(-20 13.46 2.373)">
            <path id="패스_181" data-name="패스 181" class="cls-2" d="M7.866 14.784c3.5-.587 6.013-4.4 6.013-7.845A6.939 6.939 0 1 0 0 6.939c0 3.445 2.516 7.258 6.013 7.845l-.957 1.276a.5.5 0 0 0 .4.793h.954a2.717 2.717 0 0 1-.393.993 3.777 3.777 0 0 0 0 3.962 2.573 2.573 0 0 1 .43 1.489.5.5 0 1 0 .991 0 3.519 3.519 0 0 0-.561-1.981 2.791 2.791 0 0 1 0-2.978 3.634 3.634 0 0 0 .523-1.485h1.026a.5.5 0 0 0 .4-.793zM5.177 3.387a4.838 4.838 0 0 0-2.258 3.572c-.028.254-.165.441-.414.441-.018 0 .018 0 0 0a.624.624 0 0 1-.517-.611A5.644 5.644 0 0 1 4.735 2.5a.5.5 0 1 1 .442.887z"/>
        </g>
    </g>
</svg>
