<svg xmlns="http://www.w3.org/2000/svg" xmlns:xlink="http://www.w3.org/1999/xlink" width="179" height="111" viewBox="0 0 179 111">
    <defs>
        <path id="uk8fqshuxa" d="M0 7.007C0 3.137 3.126 0 7.003 0h164.994C175.865 0 179 3.143 179 7.007v96.986c0 3.87-3.126 7.007-7.003 7.007H7.003C3.135 111 0 107.857 0 103.993V7.007z"/>
        <path id="a1017uf10d" d="M0 0L92 0 92 92 0 92z"/>
        <path id="23h9hri1ug" d="M0 0L64 0 64 64 0 64z"/>
        <filter id="lo5qlkepub">
            <feColorMatrix in="SourceGraphic" values="0 0 0 0 1.000000 0 0 0 0 0.737255 0 0 0 0 0.149020 0 0 0 1.000000 0"/>
        </filter>
        <filter id="9sxft101mf">
            <feColorMatrix in="SourceGraphic" values="0 0 0 0 1.000000 0 0 0 0 0.737255 0 0 0 0 0.149020 0 0 0 1.000000 0"/>
        </filter>
    </defs>
    <g fill="none" fill-rule="evenodd">
        <g>
            <g transform="translate(-20 -204) translate(20 204)">
                <mask id="gfqsm2dg1c" fill="#fff">
                    <use xlink:href="#uk8fqshuxa"/>
                </mask>
                <use fill="#FFCA17" fill-rule="nonzero" xlink:href="#uk8fqshuxa"/>
                <g filter="url(#lo5qlkepub)">
                    <g mask="url(#gfqsm2dg1c)">
                        <g transform="translate(106.675 33.675)">
                            <mask id="ltlxvnltve" fill="#fff">
                                <use xlink:href="#a1017uf10d"/>
                            </mask>
                            <path fill="#CECECE" d="M66.008 46.385c-1.359 0-2.944.044-4.756.044-1.585 7.337-3.26 15.129-4.303 19.657-1.585.227-4.71.227-6.16 0-1.45-6.565-2.763-12.68-4.12-19.61h-1.632c-1.36 6.93-2.672 13.045-4.121 19.61-1.45.227-4.575.227-6.115 0-1.041-4.528-2.763-12.32-4.349-19.657-1.811 0-3.395-.044-4.755-.044-.09-2.04-.09-4.304 0-6.569.996-.043 2.085-.043 3.308-.043l-1.948-9.241c1.766-.816 3.713-1.45 5.932-1.857.453 2.175 1.269 6.432 2.174 11.007 1.903 0 3.941 0 6.069-.046l1.676-8.47c1.631-.136 4.62-.18 5.889 0l1.676 8.47c2.128.046 4.166.046 6.069.046.905-4.575 1.72-8.832 2.174-11.007 2.219.408 4.212 1.041 5.933 1.857l-1.947 9.24c1.222 0 2.31 0 3.306.044.09 2.311.09 4.577 0 6.569zM46 7.662C24.828 7.662 7.663 24.827 7.663 46c0 21.173 17.165 38.338 38.338 38.338 21.173 0 38.337-17.165 38.337-38.338 0-21.173-17.164-38.338-38.337-38.338zm-9.569 38.814h3.442l-1.812 9.012c-.363-2.129-.952-5.389-1.63-9.012zm15.4 0h3.44c-.678 3.623-1.267 6.883-1.63 9.012l-1.81-9.012zM46 87.096c-22.696 0-41.095-18.4-41.095-41.096 0-22.697 18.4-41.096 41.095-41.096S87.096 23.303 87.096 46c0 22.696-18.4 41.096-41.095 41.096zM46 0C20.596 0 0 20.595 0 46s20.596 46 46 46c25.406 0 46-20.595 46-46S71.406 0 46 0z" mask="url(#ltlxvnltve)"/>
                        </g>
                    </g>
                </g>
                <g filter="url(#9sxft101mf)">
                    <g mask="url(#gfqsm2dg1c)">
                        <g transform="rotate(19 163.446 260.872)">
                            <mask id="k22x8ooyth" fill="#fff">
                                <use xlink:href="#23h9hri1ug"/>
                            </mask>
                            <path fill="#CECECE" d="M45.918 32.268c-.945 0-2.047.03-3.308.03-1.102 5.104-2.268 10.525-2.993 13.675-1.103.158-3.277.158-4.286 0-1.008-4.567-1.922-8.822-2.866-13.642H31.33c-.946 4.82-1.858 9.075-2.867 13.642-1.008.158-3.182.158-4.254 0-.724-3.15-1.922-8.57-3.025-13.674-1.26 0-2.362-.031-3.308-.031-.062-1.42-.062-2.994 0-4.57.693-.03 1.45-.03 2.301-.03l-1.355-6.428c1.229-.568 2.583-1.009 4.127-1.292.315 1.513.883 4.474 1.512 7.657 1.324 0 2.742 0 4.222-.032l1.166-5.893c1.135-.094 3.214-.125 4.097 0l1.165 5.893c1.48.032 2.899.032 4.222.032.63-3.183 1.197-6.144 1.513-7.657 1.543.283 2.93.724 4.127 1.292l-1.354 6.428c.85 0 1.606 0 2.3.03.063 1.608.063 3.184 0 4.57zM32.001 5.33C17.27 5.33 5.33 17.27 5.33 32c0 14.73 11.94 26.67 26.67 26.67 14.729 0 26.67-11.94 26.67-26.67C58.67 17.27 46.73 5.33 32 5.33zm-6.657 27h2.394l-1.26 6.27c-.252-1.48-.662-3.748-1.134-6.27zm10.712 0h2.395c-.472 2.522-.882 4.79-1.134 6.27l-1.26-6.27zm-4.055 28.258c-15.789 0-28.588-12.8-28.588-28.588 0-15.79 12.8-28.588 28.588-28.588S60.588 16.21 60.588 32c0 15.788-12.8 28.588-28.587 28.588zM32 0C14.328 0 0 14.327 0 32c0 17.673 14.328 32 32 32 17.673 0 32-14.327 32-32C64 14.327 49.673 0 32 0z" mask="url(#k22x8ooyth)"/>
                        </g>
                    </g>
                </g>
            </g>
        </g>
    </g>
</svg>
