<svg xmlns="http://www.w3.org/2000/svg" xmlns:xlink="http://www.w3.org/1999/xlink" width="360" height="642" viewBox="0 0 360 642">
    <defs>
        <path id="nxawblww4a" d="M0 0.078H360V640.078H0z"/>
        <path id="entu8jot9c" d="M60.827.589c-33.137 0-60 26.862-60 60 0 33.138 26.863 60 60 60s60-26.862 60-60c0-33.138-26.863-60-60-60zm-53.6 60c0-29.604 23.997-53.601 53.6-53.601s53.602 23.997 53.602 53.602c0 29.603-24 53.6-53.602 53.6-29.603 0-53.6-23.997-53.6-53.6zm3.596 0c0 27.618 22.389 50.005 50.004 50.005 27.619 0 50.008-22.387 50.008-50.004 0-27.619-22.39-50.006-50.008-50.006-27.615 0-50.004 22.387-50.004 50.006zm66.59-22.598c2.895.531 5.495 1.36 7.74 2.423l-2.54 12.054c1.593 0 3.01 0 4.312.054.117 3.015.117 5.97 0 8.57-1.772 0-3.842.058-6.203.058-2.067 9.57-4.253 19.73-5.613 25.639-2.068.296-6.142.296-8.035 0-1.89-8.566-3.606-16.54-5.374-25.58h-2.13c-1.771 9.04-3.485 17.014-5.375 25.58-1.891.296-5.966.296-7.975 0-1.36-5.909-3.604-16.07-5.672-25.639-2.363 0-4.43-.058-6.202-.058-.117-2.661-.117-5.614 0-8.57 1.3-.054 2.717-.054 4.312-.054l-2.54-12.054c2.305-1.063 4.845-1.892 7.739-2.423.591 2.838 1.653 8.389 2.836 14.356 2.48 0 5.14 0 7.918-.058l2.184-11.048c2.126-.177 6.028-.235 7.68 0L66.66 52.29c2.777.058 5.436.058 7.918.058 1.18-5.967 2.245-11.518 2.836-14.356zm-8.98 23.217l2.364 11.758c.473-2.78 1.24-7.031 2.124-11.758h-4.487zm-20.087 0c.887 4.727 1.655 8.978 2.128 11.758l2.363-11.758h-4.491z"/>
        <path id="pbwrbtmt9f" d="M28.714.204c-15.74 0-28.5 12.76-28.5 28.5s12.76 28.5 28.5 28.5 28.5-12.76 28.5-28.5-12.76-28.5-28.5-28.5zm-25.46 28.5c0-14.062 11.4-25.46 25.46-25.46 14.062 0 25.461 11.398 25.461 25.46 0 14.062-11.4 25.46-25.46 25.46-14.062 0-25.46-11.398-25.46-25.46zm1.709 0c0 13.118 10.634 23.752 23.751 23.752 13.12 0 23.754-10.634 23.754-23.752 0-13.119-10.635-23.752-23.754-23.752-13.117 0-23.751 10.633-23.751 23.752zm31.63-10.734c1.375.252 2.61.646 3.676 1.151l-1.206 5.725c.756 0 1.43 0 2.048.026.055 1.432.055 2.835 0 4.07-.842 0-1.825.028-2.946.028-.982 4.546-2.02 9.372-2.667 12.179-.982.14-2.917.14-3.816 0-.898-4.069-1.713-7.857-2.553-12.15h-1.011c-.842 4.293-1.656 8.081-2.554 12.15-.898.14-2.834.14-3.788 0-.646-2.807-1.712-7.633-2.694-12.179-1.122 0-2.104-.027-2.946-.027-.056-1.264-.056-2.667 0-4.07.617-.027 1.29-.027 2.048-.027l-1.206-5.725c1.094-.505 2.3-.899 3.676-1.151.28 1.348.785 3.985 1.347 6.819 1.178 0 2.441 0 3.76-.028l1.038-5.247c1.01-.084 2.863-.112 3.649 0l1.037 5.247c1.32.028 2.582.028 3.761.028.56-2.834 1.066-5.471 1.347-6.82zm-4.265 11.028l1.122 5.585c.225-1.32.59-3.34 1.009-5.585h-2.131zm-9.542 0c.421 2.245.786 4.265 1.01 5.585l1.123-5.585h-2.133z"/>
        <path id="mubbd2xrui" d="M39.5 0C17.683 0 0 17.684 0 39.5S17.684 79 39.5 79C61.313 79 79 61.316 79 39.5S61.314 0 39.5 0zM4.212 39.5c0-19.49 15.798-35.287 35.286-35.287 19.489 0 35.288 15.798 35.288 35.288 0 19.488-15.8 35.286-35.288 35.286-19.488 0-35.286-15.798-35.286-35.286zm2.367 0c0 18.182 14.74 32.92 32.92 32.92 18.182 0 32.921-14.738 32.921-32.92 0-18.182-14.74-32.92-32.922-32.92C21.32 6.58 6.58 21.318 6.58 39.5zM50.42 24.624c1.905.35 3.617.895 5.095 1.596l-1.672 7.934c1.048 0 1.982 0 2.838.036.077 1.985.077 3.93 0 5.642-1.166 0-2.528.038-4.083.038-1.361 6.3-2.8 12.99-3.695 16.88-1.361.194-4.044.194-5.29 0-1.244-5.64-2.374-10.89-3.538-16.841h-1.402c-1.166 5.951-2.294 11.201-3.539 16.84-1.245.195-3.927.195-5.25 0-.895-3.89-2.373-10.579-3.734-16.879-1.555 0-2.916-.038-4.083-.038-.077-1.752-.077-3.695 0-5.642.855-.036 1.789-.036 2.839-.036l-1.672-7.934c1.517-.7 3.19-1.246 5.094-1.596.39 1.868 1.089 5.523 1.867 9.451 1.633 0 3.385 0 5.213-.038l1.438-7.273c1.4-.117 3.968-.155 5.056 0l1.438 7.273c1.829.038 3.58.038 5.213.038.777-3.928 1.478-7.583 1.867-9.45zm-5.912 15.285l1.556 7.74c.311-1.83.817-4.629 1.398-7.74h-2.954zm-13.224 0c.584 3.111 1.09 5.91 1.4 7.74l1.556-7.74h-2.956z"/>
        <path id="nj3w5pt2cl" d="M39.5 0C17.683 0 0 17.684 0 39.5S17.684 79 39.5 79C61.313 79 79 61.316 79 39.5S61.314 0 39.5 0zM4.212 39.5c0-19.49 15.798-35.287 35.286-35.287 19.489 0 35.288 15.798 35.288 35.288 0 19.488-15.8 35.286-35.288 35.286-19.488 0-35.286-15.798-35.286-35.286zm2.367 0c0 18.182 14.74 32.92 32.92 32.92 18.182 0 32.921-14.738 32.921-32.92 0-18.182-14.74-32.92-32.922-32.92C21.32 6.58 6.58 21.318 6.58 39.5zM50.42 24.624c1.905.35 3.617.895 5.095 1.596l-1.672 7.934c1.048 0 1.982 0 2.838.036.077 1.985.077 3.93 0 5.642-1.166 0-2.528.038-4.083.038-1.361 6.3-2.8 12.99-3.695 16.88-1.361.194-4.044.194-5.29 0-1.244-5.64-2.374-10.89-3.538-16.841h-1.402c-1.166 5.951-2.294 11.201-3.539 16.84-1.245.195-3.927.195-5.25 0-.895-3.89-2.373-10.579-3.734-16.879-1.555 0-2.916-.038-4.083-.038-.077-1.752-.077-3.695 0-5.642.855-.036 1.789-.036 2.839-.036l-1.672-7.934c1.517-.7 3.19-1.246 5.094-1.596.39 1.868 1.089 5.523 1.867 9.451 1.633 0 3.385 0 5.213-.038l1.438-7.273c1.4-.117 3.968-.155 5.056 0l1.438 7.273c1.829.038 3.58.038 5.213.038.777-3.928 1.478-7.583 1.867-9.45zm-5.912 15.285l1.556 7.74c.311-1.83.817-4.629 1.398-7.74h-2.954zm-13.224 0c.584 3.111 1.09 5.91 1.4 7.74l1.556-7.74h-2.956z"/>
        <linearGradient id="bl6epa7i9d" x1="50%" x2="50%" y1="107.194%" y2="36.924%">
            <stop offset="0%" stop-color="#FFCA17"/>
            <stop offset="100%" stop-color="#FFBC26"/>
        </linearGradient>
        <linearGradient id="65h6gyh88g" x1="50%" x2="50%" y1="100%" y2="50%">
            <stop offset="0%" stop-color="#FFCA17"/>
            <stop offset="100%" stop-color="#FFBC26"/>
        </linearGradient>
        <linearGradient id="prdo1boqmj" x1="50%" x2="50%" y1="107.194%" y2="36.924%">
            <stop offset="0%" stop-color="#FFCA17"/>
            <stop offset="100%" stop-color="#FFB510"/>
        </linearGradient>
        <linearGradient id="g5i69jhj7m" x1="50%" x2="50%" y1="82.118%" y2="24.348%">
            <stop offset="0%" stop-color="#FFCA17"/>
            <stop offset="100%" stop-color="#FFBC26"/>
        </linearGradient>
    </defs>
    <g fill="none" fill-rule="evenodd">
        <g>
            <g transform="translate(0 1) translate(0 -.078)">
                <mask id="qf9nguul7b" fill="#fff">
                    <use xlink:href="#nxawblww4a"/>
                </mask>
                <use fill="#FFCA17" fill-rule="nonzero" xlink:href="#nxawblww4a"/>
                <g mask="url(#qf9nguul7b)">
                    <g>
                        <g transform="translate(-34 -53) rotate(-7 205.686 -1374.15)">
                            <mask id="7uep7qv5qe" fill="#fff">
                                <use xlink:href="#entu8jot9c"/>
                            </mask>
                            <path fill="url(#bl6epa7i9d)" d="M60.827.589c-33.137 0-60 26.862-60 60 0 33.138 26.863 60 60 60s60-26.862 60-60c0-33.138-26.863-60-60-60zm-53.6 60c0-29.604 23.997-53.601 53.6-53.601s53.602 23.997 53.602 53.602c0 29.603-24 53.6-53.602 53.6-29.603 0-53.6-23.997-53.6-53.6zm3.596 0c0 27.618 22.389 50.005 50.004 50.005 27.619 0 50.008-22.387 50.008-50.004 0-27.619-22.39-50.006-50.008-50.006-27.615 0-50.004 22.387-50.004 50.006zm66.59-22.598c2.895.531 5.495 1.36 7.74 2.423l-2.54 12.054c1.593 0 3.01 0 4.312.054.117 3.015.117 5.97 0 8.57-1.772 0-3.842.058-6.203.058-2.067 9.57-4.253 19.73-5.613 25.639-2.068.296-6.142.296-8.035 0-1.89-8.566-3.606-16.54-5.374-25.58h-2.13c-1.771 9.04-3.485 17.014-5.375 25.58-1.891.296-5.966.296-7.975 0-1.36-5.909-3.604-16.07-5.672-25.639-2.363 0-4.43-.058-6.202-.058-.117-2.661-.117-5.614 0-8.57 1.3-.054 2.717-.054 4.312-.054l-2.54-12.054c2.305-1.063 4.845-1.892 7.739-2.423.591 2.838 1.653 8.389 2.836 14.356 2.48 0 5.14 0 7.918-.058l2.184-11.048c2.126-.177 6.028-.235 7.68 0L66.66 52.29c2.777.058 5.436.058 7.918.058 1.18-5.967 2.245-11.518 2.836-14.356zm-8.98 23.217l2.364 11.758c.473-2.78 1.24-7.031 2.124-11.758h-4.487zm-20.087 0c.887 4.727 1.655 8.978 2.128 11.758l2.363-11.758h-4.491z" mask="url(#7uep7qv5qe)"/>
                        </g>
                        <g opacity=".706" transform="translate(-34 -53) rotate(3 -2514.179 5120.821)">
                            <mask id="ciufd9dnoh" fill="#fff">
                                <use xlink:href="#pbwrbtmt9f"/>
                            </mask>
                            <path fill="url(#65h6gyh88g)" d="M28.714.204c-15.74 0-28.5 12.76-28.5 28.5s12.76 28.5 28.5 28.5 28.5-12.76 28.5-28.5-12.76-28.5-28.5-28.5zm-25.46 28.5c0-14.062 11.4-25.46 25.46-25.46 14.062 0 25.461 11.398 25.461 25.46 0 14.062-11.4 25.46-25.46 25.46-14.062 0-25.46-11.398-25.46-25.46zm1.709 0c0 13.118 10.634 23.752 23.751 23.752 13.12 0 23.754-10.634 23.754-23.752 0-13.119-10.635-23.752-23.754-23.752-13.117 0-23.751 10.633-23.751 23.752zm31.63-10.734c1.375.252 2.61.646 3.676 1.151l-1.206 5.725c.756 0 1.43 0 2.048.026.055 1.432.055 2.835 0 4.07-.842 0-1.825.028-2.946.028-.982 4.546-2.02 9.372-2.667 12.179-.982.14-2.917.14-3.816 0-.898-4.069-1.713-7.857-2.553-12.15h-1.011c-.842 4.293-1.656 8.081-2.554 12.15-.898.14-2.834.14-3.788 0-.646-2.807-1.712-7.633-2.694-12.179-1.122 0-2.104-.027-2.946-.027-.056-1.264-.056-2.667 0-4.07.617-.027 1.29-.027 2.048-.027l-1.206-5.725c1.094-.505 2.3-.899 3.676-1.151.28 1.348.785 3.985 1.347 6.819 1.178 0 2.441 0 3.76-.028l1.038-5.247c1.01-.084 2.863-.112 3.649 0l1.037 5.247c1.32.028 2.582.028 3.761.028.56-2.834 1.066-5.471 1.347-6.82zm-4.265 11.028l1.122 5.585c.225-1.32.59-3.34 1.009-5.585h-2.131zm-9.542 0c.421 2.245.786 4.265 1.01 5.585l1.123-5.585h-2.133z" mask="url(#ciufd9dnoh)" opacity=".801"/>
                        </g>
                        <g opacity=".75" transform="translate(-34 -53) translate(0 126.078)">
                            <mask id="ipkbvqbifk" fill="#fff">
                                <use xlink:href="#mubbd2xrui"/>
                            </mask>
                            <path fill="url(#prdo1boqmj)" d="M39.5 0C17.683 0 0 17.684 0 39.5S17.684 79 39.5 79C61.313 79 79 61.316 79 39.5S61.314 0 39.5 0zM4.212 39.5c0-19.49 15.798-35.287 35.286-35.287 19.489 0 35.288 15.798 35.288 35.288 0 19.488-15.8 35.286-35.288 35.286-19.488 0-35.286-15.798-35.286-35.286zm2.367 0c0 18.182 14.74 32.92 32.92 32.92 18.182 0 32.921-14.738 32.921-32.92 0-18.182-14.74-32.92-32.922-32.92C21.32 6.58 6.58 21.318 6.58 39.5zM50.42 24.624c1.905.35 3.617.895 5.095 1.596l-1.672 7.934c1.048 0 1.982 0 2.838.036.077 1.985.077 3.93 0 5.642-1.166 0-2.528.038-4.083.038-1.361 6.3-2.8 12.99-3.695 16.88-1.361.194-4.044.194-5.29 0-1.244-5.64-2.374-10.89-3.538-16.841h-1.402c-1.166 5.951-2.294 11.201-3.539 16.84-1.245.195-3.927.195-5.25 0-.895-3.89-2.373-10.579-3.734-16.879-1.555 0-2.916-.038-4.083-.038-.077-1.752-.077-3.695 0-5.642.855-.036 1.789-.036 2.839-.036l-1.672-7.934c1.517-.7 3.19-1.246 5.094-1.596.39 1.868 1.089 5.523 1.867 9.451 1.633 0 3.385 0 5.213-.038l1.438-7.273c1.4-.117 3.968-.155 5.056 0l1.438 7.273c1.829.038 3.58.038 5.213.038.777-3.928 1.478-7.583 1.867-9.45zm-5.912 15.285l1.556 7.74c.311-1.83.817-4.629 1.398-7.74h-2.954zm-13.224 0c.584 3.111 1.09 5.91 1.4 7.74l1.556-7.74h-2.956z" mask="url(#ipkbvqbifk)"/>
                        </g>
                        <g opacity=".876" transform="translate(-34 -53) rotate(3 -2084.889 7260.375)">
                            <mask id="oblfrzxmin" fill="#fff">
                                <use xlink:href="#nj3w5pt2cl"/>
                            </mask>
                            <path fill="url(#g5i69jhj7m)" d="M39.5 0C17.683 0 0 17.684 0 39.5S17.684 79 39.5 79C61.313 79 79 61.316 79 39.5S61.314 0 39.5 0zM4.212 39.5c0-19.49 15.798-35.287 35.286-35.287 19.489 0 35.288 15.798 35.288 35.288 0 19.488-15.8 35.286-35.288 35.286-19.488 0-35.286-15.798-35.286-35.286zm2.367 0c0 18.182 14.74 32.92 32.92 32.92 18.182 0 32.921-14.738 32.921-32.92 0-18.182-14.74-32.92-32.922-32.92C21.32 6.58 6.58 21.318 6.58 39.5zM50.42 24.624c1.905.35 3.617.895 5.095 1.596l-1.672 7.934c1.048 0 1.982 0 2.838.036.077 1.985.077 3.93 0 5.642-1.166 0-2.528.038-4.083.038-1.361 6.3-2.8 12.99-3.695 16.88-1.361.194-4.044.194-5.29 0-1.244-5.64-2.374-10.89-3.538-16.841h-1.402c-1.166 5.951-2.294 11.201-3.539 16.84-1.245.195-3.927.195-5.25 0-.895-3.89-2.373-10.579-3.734-16.879-1.555 0-2.916-.038-4.083-.038-.077-1.752-.077-3.695 0-5.642.855-.036 1.789-.036 2.839-.036l-1.672-7.934c1.517-.7 3.19-1.246 5.094-1.596.39 1.868 1.089 5.523 1.867 9.451 1.633 0 3.385 0 5.213-.038l1.438-7.273c1.4-.117 3.968-.155 5.056 0l1.438 7.273c1.829.038 3.58.038 5.213.038.777-3.928 1.478-7.583 1.867-9.45zm-5.912 15.285l1.556 7.74c.311-1.83.817-4.629 1.398-7.74h-2.954zm-13.224 0c.584 3.111 1.09 5.91 1.4 7.74l1.556-7.74h-2.956z" mask="url(#oblfrzxmin)"/>
                        </g>
                    </g>
                </g>
            </g>
        </g>
    </g>
</svg>
