<svg xmlns="http://www.w3.org/2000/svg" width="298" height="170" viewBox="0 0 298 170">
    <defs>
        <clipPath id="75v7ttwtva">
            <rect width="273" height="170" rx="7" style="fill:#ffca17"/>
        </clipPath>
        <clipPath id="ub03mrqbpb">
            <path data-name="Clip 2" d="M0 0h140.54v140.54H0z" style="fill:none"/>
        </clipPath>
        <clipPath id="1sfgczlkzc">
            <path data-name="Clip 2" d="M0 0h97.767v97.767H0z" style="fill:none"/>
        </clipPath>
    </defs>
    <g transform="translate(-31 -448)">
        <rect data-name="Mask" width="298" height="170" rx="8" transform="translate(31 448)" style="fill:#ffca17"/>
        <g data-name="Group 3 + Group 3 Copy Mask" transform="translate(56 448)" style="clip-path:url(#75v7ttwtva)">
            <g data-name="Group 3">
                <path data-name="Clip 2" d="M0 0h140.54v140.54H0z" style="fill:none" transform="translate(162.957 51.442)"/>
                <g data-name="Group 3" style="clip-path:url(#ub03mrqbpb)" transform="translate(162.957 51.442)">
                    <path data-name="Fill 1" d="M70.271 140.54A70.288 70.288 0 0 1 42.919 5.522a70.288 70.288 0 0 1 54.7 129.5 69.829 69.829 0 0 1-27.348 5.518zm0-133.048a62.795 62.795 0 0 0-24.435 120.623 62.794 62.794 0 0 0 48.87-115.69 62.382 62.382 0 0 0-24.435-4.933zm0 121.344a58.581 58.581 0 0 1-22.8-112.529 58.581 58.581 0 0 1 45.596 107.926 58.2 58.2 0 0 1-22.796 4.603zM68.8 71h2.491c2.2 11.226 4.324 21.032 6.294 29.957a33.333 33.333 0 0 0 4.627.26 36.935 36.935 0 0 0 4.782-.26c1.447-6.284 3.714-16.781 5.906-26.933l.668-3.1h.136c1.43 0 2.744-.018 4.015-.036 1.105-.015 2.15-.03 3.114-.03.138-3.033.139-6.5 0-10.035-1.522-.066-3.157-.066-5.05-.066l2.975-14.117a36.606 36.606 0 0 0-9.063-2.835c-.43 2.062-1.079 5.378-1.83 9.218-.452 2.312-.965 4.933-1.492 7.6h-.161c-2.909 0-5.918 0-9.11-.071L74.543 47.61a31.767 31.767 0 0 0-3.936-.182c-1.771 0-3.71.07-5.06.182l-2.561 12.938c-3.25.07-6.311.07-9.271.07-.528-2.666-1.04-5.284-1.492-7.6-.751-3.84-1.4-7.156-1.83-9.218a37.422 37.422 0 0 0-9.062 2.835l2.975 14.117h-.8c-1.7 0-3.011.011-4.252.065a123.384 123.384 0 0 0 0 10.035c.964 0 2.007.015 3.112.03 1.314.018 2.67.037 4.152.037 2.448 11.33 5.054 23.116 6.642 30.028a35.666 35.666 0 0 0 4.724.26 33.22 33.22 0 0 0 4.618-.26c1.944-8.8 4.054-18.526 6.3-29.955zm13.143 13.76L79.177 71h5.257c-1.008 5.385-1.916 10.4-2.488 13.76zm-23.8 0A948.138 948.138 0 0 0 55.655 71h5.257z" style="opacity:.291;fill:#fff"/>
                </g>
            </g>
            <g data-name="Group 3 Copy">
                <path data-name="Clip 2" d="M0 0h97.767v97.767H0z" style="fill:none" transform="rotate(19 249.682 398.51)"/>
                <g data-name="Group 3 Copy" style="clip-path:url(#1sfgczlkzc)" transform="rotate(19 249.682 398.51)">
                    <path data-name="Fill 1" d="M48.884 97.767A48.9 48.9 0 0 1 29.857 3.842a48.9 48.9 0 0 1 38.055 90.083 48.577 48.577 0 0 1-19.028 3.842zm0-92.555a43.683 43.683 0 0 0-17 83.911 43.682 43.682 0 0 0 34-80.479 43.4 43.4 0 0 0-17-3.432zm0 84.413a40.752 40.752 0 0 1-15.858-78.281 40.752 40.752 0 0 1 31.716 75.079 40.484 40.484 0 0 1-15.858 3.202zm-1.023-40.236h1.732c1.525 7.789 3.006 14.619 4.379 20.84a23.222 23.222 0 0 0 3.219.18 25.741 25.741 0 0 0 3.327-.18c1.012-4.393 2.6-11.739 4.132-18.843l.442-2.045h.13c.979 0 1.881-.013 2.753-.025.773-.011 1.5-.022 2.169-.022.1-2.108.1-4.522 0-6.98-1.059-.047-2.2-.047-3.513-.047l2.069-9.821a25.4 25.4 0 0 0-6.3-1.973c-.3 1.452-.762 3.8-1.293 6.518l-.006.032c-.307 1.572-.656 3.354-1.01 5.147h-.157c-2.01 0-4.089 0-6.292-.051l-1.782-9a22.209 22.209 0 0 0-2.734-.126c-1.231 0-2.581.048-3.523.126l-1.782 9c-2.262.049-4.391.049-6.449.049-.353-1.787-.7-3.563-1.008-5.133L36.351 37a645.692 645.692 0 0 0-1.294-6.522 25.935 25.935 0 0 0-6.3 1.973l2.069 9.819h-.646a66.86 66.86 0 0 0-2.872.045c-.1 2.4-.1 4.811 0 6.98.671 0 1.4.01 2.166.021.912.013 1.854.027 2.886.027 1.7 7.852 3.51 16.051 4.621 20.888a24.856 24.856 0 0 0 3.286.18 23.168 23.168 0 0 0 3.213-.18c1.35-6.119 2.817-12.88 4.38-20.839zm-7.412 9.57a663.275 663.275 0 0 0-1.731-9.57h3.657zm16.554 0-1.923-9.57h3.657c-.7 3.733-1.331 7.221-1.731 9.57z" style="opacity:.265;fill:#fff"/>
                </g>
            </g>
        </g>
    </g>
</svg>
