<svg xmlns="http://www.w3.org/2000/svg" width="6" height="10" viewBox="0 0 6 10">
    <defs>
        <clipPath id="4nkch2xk2a">
            <path data-name="Clip 2" d="M0 0h6v-10H0z" transform="translate(.682)" style="fill:none"/>
        </clipPath>
    </defs>
    <g style="opacity:.244">
        <g data-name="Group 3 Copy" style="opacity:.79">
            <path data-name="Clip 2" d="M0 0h6v-10H0z" transform="translate(0 10)" style="fill:none"/>
            <g data-name="Group 3 Copy" style="clip-path:url(#4nkch2xk2a)" transform="translate(-.682 10)">
                <path data-name="Fill 1" d="M1.465-10a.773.773 0 0 0-.554.235.812.812 0 0 0 0 1.132L4.467-5 .912-1.367a.812.812 0 0 0 0 1.132.77.77 0 0 0 1.107 0L6.682-5 2.019-9.765A.773.773 0 0 0 1.465-10"/>
            </g>
        </g>
    </g>
</svg>
