<svg data-name="Icon / sub / mobilitiy" xmlns="http://www.w3.org/2000/svg" width="37" height="37">
    <g data-name="그룹 558">
        <path data-name="Rectangle Copy 15" d="M6 0h25a6 6 0 0 1 6 6v25a6 6 0 0 1-6 6H6a6 6 0 0 1-6-6V6a6 6 0 0 1 6-6z" style="fill:#34d56a"/>
        <path data-name="패스 105" d="m791.185 38.273-1.333-4.542A2.366 2.366 0 0 0 787.577 32h-8.921a2.37 2.37 0 0 0-2.275 1.731l-1.332 4.542a2.433 2.433 0 0 0-1.433 2.227v4.857a1.2 1.2 0 0 0 1.188 1.214v1.214A1.2 1.2 0 0 0 775.991 49h1.189a1.2 1.2 0 0 0 1.188-1.214v-1.214h9.5v1.214A1.2 1.2 0 0 0 789.054 49h1.188a1.2 1.2 0 0 0 1.188-1.214v-1.214a1.2 1.2 0 0 0 1.188-1.214V40.5a2.431 2.431 0 0 0-1.432-2.227zM778.4 43.715a1.394 1.394 0 1 1 1.363-1.393 1.378 1.378 0 0 1-1.363 1.393zm9.44 0a1.394 1.394 0 1 1 1.363-1.393 1.379 1.379 0 0 1-1.36 1.393z" transform="translate(-764.616 -22)" style="fill:#fff"/>
    </g>
</svg>
