<svg xmlns="http://www.w3.org/2000/svg" width="64" height="64" viewBox="0 0 64 64">
    <defs>
        <clipPath id="9b1ep79sga">
            <path data-name="Clip 2" d="M0 2.489 12.877 0l1.753 8.966-12.877 2.489z" style="fill:none"/>
        </clipPath>
    </defs>
    <g transform="translate(-20.5 -232)">
        <rect data-name="Rectangle Copy 16" width="64" height="64" rx="7" transform="translate(20.5 232)" style="fill:#ffca35"/>
        <g data-name="그룹 770">
            <g data-name="그룹 765">
                <path data-name="Clip 2" d="M0 16.8a16.8 16.8 0 0 0 16.8 16.8 16.8 16.8 0 0 0 16.8-16.8A16.8 16.8 0 0 0 16.8 0 16.8 16.8 0 0 0 0 16.8" transform="translate(35.704 248)" style="fill:#fff"/>
                <path data-name="Fill 4" d="M0 .591s10.447-3.072 7.723 4.792c0 0 3.516-.14 1.724 3.083" transform="translate(57.876 248.704)" style="fill:#fff"/>
                <path data-name="Fill 8" d="M52.941 261.56a.544.544 0 0 1-.508-.358 2.49 2.49 0 0 0-2.3-1.623 2.46 2.46 0 0 0-2.3 1.6.54.54 0 0 1-.707.314.565.565 0 0 1-.306-.727 3.545 3.545 0 0 1 3.309-2.306 3.552 3.552 0 0 1 2.812 1.419 3.514 3.514 0 0 1 6.123.89.565.565 0 0 1-.305.727.54.54 0 0 1-.708-.314 2.46 2.46 0 0 0-2.3-1.6 2.488 2.488 0 0 0-2.3 1.623.545.545 0 0 1-.508.358"/>
                <path data-name="Fill 10" d="M13.985 6.2H3.019A3.061 3.061 0 0 1 0 3.1 3.061 3.061 0 0 1 3.019 0h10.966A3.061 3.061 0 0 1 17 3.1a3.061 3.061 0 0 1-3.019 3.1" transform="translate(44.353 267.432)" style="fill:#f5881f"/>
                <path data-name="Fill 12" d="M13.017 1.392H.678A.687.687 0 0 1 0 .7.687.687 0 0 1 .678 0h12.339a.687.687 0 0 1 .677.7.687.687 0 0 1-.677.7" transform="translate(46.01 269.85)" style="fill:#ae4f08"/>
                <path data-name="Fill 14" d="M50.492 264.932a.538.538 0 0 1-.531.545.538.538 0 0 1-.53-.545.538.538 0 0 1 .53-.545.538.538 0 0 1 .531.545"/>
                <path data-name="Fill 16" d="M49.963 265.782a.84.84 0 0 1-.828-.85.84.84 0 0 1 .828-.85.84.84 0 0 1 .827.85.84.84 0 0 1-.827.85zm0-1.09a.239.239 0 1 0 .233.24.237.237 0 0 0-.233-.239z"/>
                <path data-name="Fill 18" d="M55.921 264.932a.538.538 0 0 1-.531.545.538.538 0 0 1-.53-.545.538.538 0 0 1 .53-.545.538.538 0 0 1 .531.545"/>
                <path data-name="Fill 20" d="M55.39 265.782a.84.84 0 0 1-.828-.85.84.84 0 0 1 .828-.85.84.84 0 0 1 .827.85.84.84 0 0 1-.827.85zm0-1.09a.239.239 0 1 0 .233.24.237.237 0 0 0-.233-.239z"/>
            </g>
        </g>
        <g data-name="Group 3 Copy 7" style="opacity:.73">
            <path data-name="Clip 2" d="M0 2.489 12.877 0l1.753 8.966-12.877 2.489z" style="fill:none" transform="rotate(9 -1472.416 411.028)"/>
            <g data-name="Group 3 Copy 7" style="clip-path:url(#9b1ep79sga)" transform="rotate(9 -1472.416 411.028)">
                <path data-name="Fill 1" d="M10.543 1.464a1.257 1.257 0 0 0 .357.662l-1.411 1.76-2.254-1.881a1.245 1.245 0 0 0 .233-1 1.2 1.2 0 1 0-2.356.46 1.237 1.237 0 0 0 .766.924L4.4 4.856 2.338 3.7a1.255 1.255 0 0 0 .042-.639 1.215 1.215 0 0 0-1.412-.984A1.221 1.221 0 0 0 .023 3.52a1.216 1.216 0 0 0 1.414.98 1.289 1.289 0 0 0 .163-.045l1.956 4.807A14.233 14.233 0 0 0 11.8 7.673l.124-5.222h.031A1.222 1.222 0 0 0 12.9 1a1.2 1.2 0 1 0-2.357.46z" transform="translate(.491 1.161)" style="fill:#fff"/>
            </g>
        </g>
    </g>
</svg>
