<svg xmlns="http://www.w3.org/2000/svg" xmlns:xlink="http://www.w3.org/1999/xlink" width="16" height="16" viewBox="0 0 16 16">
    <defs>
        <path id="f36jvw87ka" d="M0 0L15.205 0 15.205 15.614 0 15.614z"/>
    </defs>
    <g fill="none" fill-rule="evenodd">
        <g>
            <g transform="translate(-324 -37) translate(324 37)">
                <mask id="ute8dvz16b" fill="#fff">
                    <use xlink:href="#f36jvw87ka"/>
                </mask>
                <path fill="#313131" d="M2 6.704C2 4.11 4.11 2 6.705 2c2.593 0 4.704 2.11 4.704 4.704s-2.111 4.704-4.704 4.704C4.11 11.408 2 9.298 2 6.704m12.902 7.192l-3.025-2.932c.956-1.159 1.532-2.644 1.532-4.26C13.409 3.008 10.401 0 6.705 0 3.008 0 0 3.008 0 6.704c0 3.696 3.008 6.704 6.705 6.704 1.358 0 2.622-.409 3.679-1.106l3.125 3.03c.195.188.446.282.697.282.26 0 .522-.1.717-.304.385-.396.375-1.029-.021-1.414" mask="url(#ute8dvz16b)"/>
            </g>
        </g>
    </g>
</svg>
