<svg xmlns="http://www.w3.org/2000/svg" xmlns:xlink="http://www.w3.org/1999/xlink" width="13" height="13" viewBox="0 0 13 13">
    <defs>
        <path id="k5lg4l1qra" d="M0 0L12.354 0 12.354 12.686 0 12.686z"/>
    </defs>
    <g fill="none" fill-rule="evenodd" opacity=".261">
        <g>
            <g transform="translate(-67 -40) translate(67 40)">
                <mask id="yd7dm20peb" fill="#fff">
                    <use xlink:href="#k5lg4l1qra"/>
                </mask>
                <path fill="#313131" d="M1.625 5.447c0-2.108 1.714-3.822 3.823-3.822 2.107 0 3.822 1.714 3.822 3.822S7.555 9.27 5.448 9.27c-2.109 0-3.823-1.714-3.823-3.822m10.483 5.844L9.65 8.908c.777-.941 1.245-2.148 1.245-3.46C10.895 2.443 8.45 0 5.448 0 2.444 0 0 2.444 0 5.447s2.444 5.447 5.448 5.447c1.103 0 2.13-.332 2.989-.899l2.54 2.462c.157.153.361.23.565.23.212 0 .425-.083.583-.248.313-.321.305-.836-.017-1.148" mask="url(#yd7dm20peb)"/>
            </g>
        </g>
    </g>
</svg>
