<svg xmlns="http://www.w3.org/2000/svg" width="64" height="64" viewBox="0 0 64 64">
    <g data-name="그룹 877" transform="translate(-191.5 -232)">
        <rect data-name="Rectangle Copy 16" width="64" height="64" rx="7" transform="translate(191.5 232)" style="fill:#d8d8d8;opacity:.572"/>
        <path data-name="Clip 2" d="M0 16.737a16.738 16.738 0 0 0 16.737 16.738 16.738 16.738 0 0 0 16.738-16.738A16.737 16.737 0 0 0 16.737 0 16.737 16.737 0 0 0 0 16.737" transform="translate(205.431 248.117)" style="fill:#fff"/>
    </g>
    <path data-name="Fill 4" d="M0 .586s10.362-3.047 7.66 4.753c0 0 3.488-.139 1.71 3.058" transform="translate(36.078 16.815)" style="fill:#fff"/>
    <path data-name="Fill 8" d="M6.111 3.075a.54.54 0 0 1-.5-.355 2.47 2.47 0 0 0-2.29-1.61A2.44 2.44 0 0 0 1.043 2.7a.536.536 0 0 1-.7.311.56.56 0 0 1-.3-.721A3.516 3.516 0 0 1 3.321 0a3.523 3.523 0 0 1 2.79 1.407 3.486 3.486 0 0 1 6.073.883.56.56 0 0 1-.3.721.536.536 0 0 1-.7-.311A2.44 2.44 0 0 0 8.9 1.11a2.468 2.468 0 0 0-2.285 1.61.541.541 0 0 1-.5.355" transform="translate(24.998 26.546)" style="fill:#7e7e7e"/>
    <path data-name="Fill 10" d="M13.871 6.153H2.994A3.036 3.036 0 0 1 0 3.077 3.036 3.036 0 0 1 2.994 0h10.877a3.036 3.036 0 0 1 2.994 3.077 3.036 3.036 0 0 1-2.994 3.076" transform="translate(22.591 35.501)" style="fill:#e3e3e3"/>
    <path data-name="Fill 12" d="M12.911 1.381H.672A.682.682 0 0 1 0 .691.682.682 0 0 1 .672 0h12.239a.681.681 0 0 1 .672.691.681.681 0 0 1-.672.69" transform="translate(24.233 37.895)" style="fill:#7e7e7e"/>
    <g data-name="그룹 849" transform="translate(-180.218 -232.509)">
        <rect data-name="사각형 322" width="1" height="3" rx=".5" transform="rotate(45 -211.427 391.217)" style="fill:#ababab"/>
        <rect data-name="사각형 323" width="1" height="3" rx=".5" transform="rotate(135 52.574 177.717)" style="fill:#ababab"/>
    </g>
    <g data-name="그룹 850" transform="translate(-185.564 -232.509)">
        <rect data-name="사각형 322" width="1" height="3" rx=".5" transform="rotate(45 -211.427 391.217)" style="fill:#ababab"/>
        <rect data-name="사각형 323" width="1" height="3" rx=".5" transform="rotate(135 52.574 177.717)" style="fill:#ababab"/>
    </g>
</svg>
