<svg xmlns="http://www.w3.org/2000/svg" width="23.86" height="24.75">
    <defs>
        <style>
            .cls-2{fill:#fff;stroke:#fff;stroke-width:1.5px;stroke-miterlimit:10}
        </style>
    </defs>
    <g id="Icon_main_report" data-name="Icon / main / report" transform="translate(.824 .75)">
        <g id="그룹_710" data-name="그룹 710">
            <path id="패스_184" data-name="패스 184" d="M-395.791 666.467a.717.717 0 0 1-.722-.547l-1.565-7.934a3.516 3.516 0 0 0-3.538-2.671h-4.792a3.514 3.514 0 0 0-3.538 2.672l-1.566 7.933a.716.716 0 0 1-.721.547 1.473 1.473 0 0 0-1.541 1.394v1.276a1.106 1.106 0 0 0 1.158 1.047h17.208a1.106 1.106 0 0 0 1.158-1.047v-1.276a1.473 1.473 0 0 0-1.541-1.394z" transform="translate(415.155 -646.184)" style="fill:#fff"/>
            <path id="패스_185" data-name="패스 185" class="cls-2" d="M-397.435 652.362a.464.464 0 0 0-.658 0l-2.628 2.628a.464.464 0 0 0 0 .658.465.465 0 0 0 .657 0l2.629-2.629a.465.465 0 0 0 0-.657z" transform="translate(419.585 -647.565)"/>
            <path id="패스_186" data-name="패스 186" class="cls-2" d="M-414.791 652.362a.465.465 0 0 0 0 .657l2.629 2.629a.465.465 0 0 0 .657 0 .466.466 0 0 0 0-.658l-2.628-2.628a.464.464 0 0 0-.658 0z" transform="translate(414.926 -647.565)"/>
            <path id="패스_187" data-name="패스 187" class="cls-2" d="M-405.865 652.906v-3.717a.465.465 0 0 0-.465-.465.465.465 0 0 0-.465.465v3.717a.465.465 0 0 0 .465.465.465.465 0 0 0 .465-.465z" transform="translate(417.473 -648.724)"/>
        </g>
        <path id="패스_189" data-name="패스 189" d="M-408.608 657.985a.439.439 0 0 0-.506.361l-1.023 5.988a.44.44 0 0 0 .361.507.439.439 0 0 0 .507-.361l1.022-5.988a.439.439 0 0 0-.361-.507z" transform="translate(416.394 -645.59)" style="fill:#c8c8c8;stroke:#ffbc26;stroke-miterlimit:10"/>
    </g>
</svg>
