<svg xmlns="http://www.w3.org/2000/svg" width="29" height="42" viewBox="0 0 29 42">
    <g fill="none" fill-rule="evenodd">
        <g fill="#FFF">
            <path d="M254.788 192.055c-4.29-4.095-4.29-10.76 0-14.856 4.291-4.095 11.273-4.096 15.564 0 4.29 4.096 4.29 10.76 0 14.856-4.291 4.096-11.273 4.096-15.564 0m17.686 2.309c5.461-5.309 5.461-13.946 0-19.255-5.46-5.309-14.347-5.309-19.808 0s-5.461 13.946 0 19.255c2.312 2.247 5.237 3.543 8.256 3.887v4.559h-3.295c-.91 0-1.648.717-1.648 1.602 0 .884.737 1.601 1.648 1.601h3.295v4.513c0 .884.738 1.601 1.648 1.601.91 0 1.648-.717 1.648-1.601v-4.513h3.296c.91 0 1.647-.717 1.647-1.601 0-.885-.737-1.602-1.647-1.602h-3.296v-4.559c3.02-.344 5.945-1.64 8.256-3.887" transform="translate(-248 -171)"/>
        </g>
    </g>
</svg>
