<svg xmlns="http://www.w3.org/2000/svg" width="106.252" height="25.757" viewBox="0 0 106.252 25.757">
    <defs>
        <clipPath id="matb337e5a">
            <path data-name="사각형 4128" style="fill:#fff" d="M0 0h106.252v25.757H0z"/>
        </clipPath>
    </defs>
    <g data-name="그룹 935" style="clip-path:url(#matb337e5a)">
        <path data-name="패스 2740" d="M51.765 0h-5.038a2.8 2.8 0 0 0-2.8 2.8v20.16a2.8 2.8 0 0 0 2.8 2.8H51.8A12.878 12.878 0 0 0 51.765 0m6.458 13.08a7.719 7.719 0 0 1-1.536 4.778 4.633 4.633 0 0 1-3.621 1.932H50.6a.451.451 0 0 1-.448-.448l-.006-12.493a.45.45 0 0 1 .448-.448h2.444a4.635 4.635 0 0 1 3.619 1.91 7.717 7.717 0 0 1 1.567 4.768" transform="translate(17.624)" style="fill:#fff"/>
        <path data-name="패스 2741" d="M81.879 2.793A2.8 2.8 0 0 0 79.078 0h-.648a2.806 2.806 0 0 0-2.793 2.805l.018 12.014a4.379 4.379 0 1 1-8.757.013l-.02-12.017a2.781 2.781 0 0 0-.824-1.978 2.819 2.819 0 0 0-1.986-.816h-.632a2.8 2.8 0 0 0-2.793 2.809l.023 6.47v5.87a10.616 10.616 0 0 0 10.617 10.587h.034a10.585 10.585 0 0 0 10.55-9.777h.056z" transform="translate(24.329)" style="fill:#fff"/>
        <path data-name="패스 2742" d="M21.571 0a9.223 9.223 0 0 0-6.139 2.355A9.262 9.262 0 0 0 0 9.291v13.7a2.678 2.678 0 0 0 2.678 2.679h.884a2.677 2.677 0 0 0 2.678-2.678v-4.08L6.214 8.827c0-1.478 1.609-2.682 3.088-2.686a2.953 2.953 0 0 1 2.988 2.672l.015 14.181a2.677 2.677 0 0 0 2.678 2.675h.917a2.678 2.678 0 0 0 2.678-2.678v-4.08l-.025-10.084c-.006-1.478 1.665-2.682 3.143-2.686h.035a2.865 2.865 0 0 1 2.9 2.675l.017 14.181a2.677 2.677 0 0 0 2.678 2.675h.863a2.677 2.677 0 0 0 2.678-2.678V9.232A9.26 9.26 0 0 0 21.571 0" style="fill:#fff"/>
        <path data-name="패스 2743" d="M36.519 0a12.629 12.629 0 0 0-12.4 12.821 12.629 12.629 0 0 0 12.4 12.821 12.63 12.63 0 0 0 12.4-12.821A12.63 12.63 0 0 0 36.519 0m6.546 12.821a6.55 6.55 0 1 1-13.091 0 6.55 6.55 0 1 1 13.091 0" transform="translate(9.677)" style="fill:#fff"/>
    </g>
</svg>
