<svg xmlns="http://www.w3.org/2000/svg" xmlns:xlink="http://www.w3.org/1999/xlink" width="45" height="44" viewBox="0 0 45 44">
    <defs>
        <path id="p1oxgbxvda" d="M0.55 0L44.55 0 44.55 44 0.55 44z"/>
    </defs>
    <g fill="none" fill-rule="evenodd" opacity=".149">
        <g>
            <g transform="translate(-240 -232) translate(240 232)">
                <mask id="78wx5yf8vb" fill="#fff">
                    <use xlink:href="#p1oxgbxvda"/>
                </mask>
                <path fill="#231F20" d="M14.874 21.832c-.017 4.33 3.543 7.986 7.769 7.98 4.214-.006 7.73-3.506 7.777-7.743.047-4.297-3.506-7.876-7.83-7.885-4.222-.01-7.699 3.437-7.716 7.648M5.851 33.306l3.314-3.242c-.515-1.3-.956-2.514-1.49-3.683-.111-.242-.57-.45-.87-.456-1.414-.027-2.828-.027-4.26-.024-1.101.002-1.995-.894-1.995-2v-3.804c0-1.105.891-2 1.99-2 .574 0 1.15 0 1.725-.002 1.036-.003 2.275.332 3.047-.126.685-.406.846-1.699 1.25-2.595.188-.413.404-.813.616-1.236l-3.376-3.297c-.797-.778-.805-2.061-.019-2.85L8.48 5.283c.78-.782 2.043-.78 2.818.008l3.173 3.216c1.453-.582 2.634-1.016 3.774-1.542.249-.114.49-.55.496-.843.029-1.364.029-2.729.026-4.117C18.765.9 19.657 0 20.757 0h3.79c1.096 0 1.986.89 1.99 1.992.005 1.307.008 2.615-.021 3.923-.015.69.168 1.01.87 1.222 1.075.324 2.094.837 3.27 1.325l3.257-3.35c.775-.798 2.05-.805 2.833-.015l2.62 2.642c.778.783.775 2.051-.006 2.831l-3.27 3.266c.555 1.4.996 2.614 1.53 3.784.111.242.57.45.871.455 1.349.027 2.698.027 4.065.024 1.1-.002 1.994.894 1.994 2v3.804c0 1.105-.89 2-1.99 2-.573 0-1.15 0-1.725.002-.972.003-2.131-.309-2.857.12-.639.377-.785 1.588-1.164 2.425-.213.473-.457.931-.704 1.43l3.383 3.282c.802.778.812 2.065.024 2.856L36.8 38.742c-.785.787-2.06.778-2.832-.022l-3.127-3.235c-1.47.592-2.65 1.03-3.79 1.557-.249.115-.492.545-.498.835-.03 1.365-.03 2.73-.026 4.118.002 1.106-.89 2.005-1.99 2.005h-3.79c-1.096 0-1.986-.89-1.99-1.992-.005-1.307-.008-2.615.021-3.922.015-.691-.17-1.016-.868-1.23-1.074-.329-2.095-.835-3.27-1.32-1.064 1.092-2.164 2.224-3.253 3.343-.774.797-2.047.804-2.83.016L5.83 36.154c-.784-.789-.776-2.07.02-2.848" mask="url(#78wx5yf8vb)"/>
            </g>
        </g>
    </g>
</svg>
