<svg xmlns="http://www.w3.org/2000/svg" width="18" height="19" viewBox="0 0 18 19">
    <g fill="none" fill-rule="evenodd">
        <g fill="#FF0558">
            <path d="M41 290.208h1.455c.937 0 1.875.006 2.812-.004.215-.003.288.068.319.28.386 2.637.782 5.273 1.175 7.908.03.198.04.4.087.592.02.085.11.152.17.226.052-.069.14-.133.152-.209.445-2.84.885-5.68 1.315-8.522.033-.22.113-.278.323-.275.817.01 1.635.01 2.452 0 .197-.002.272.06.314.259.57 2.673 1.151 5.344 1.729 8.015.01.05.014.103.038.144.034.06.085.11.129.163.035-.06.097-.119.102-.181.046-.588.084-1.177.124-1.765l.407-5.923c.105-1.545.21-3.09.31-4.636.01-.166.015-.282.238-.28 1.406.009 2.812.005 4.217.006.03 0 .058.012.132.028-.072.458-.143.916-.219 1.372l-1.233 7.383-1.23 7.352c-.058.345-.126.689-.164 1.035-.026.237-.123.338-.365.365-.871.093-1.74.207-2.61.313-.405.05-.812.086-1.215.15-.186.03-.267 0-.303-.202-.434-2.477-.876-4.953-1.316-7.429-.007-.04-.002-.086-.022-.116-.044-.066-.1-.122-.152-.182-.055.064-.15.123-.16.193-.146 1.079-.282 2.159-.42 3.238-.2 1.565-.396 3.13-.606 4.694-.011.077-.14.183-.224.195-1.125.15-2.252.284-3.378.421l-1.535.184L41 290.208" transform="translate(-41 -286)"/>
        </g>
    </g>
</svg>
