<svg id="Icon_main_create_tranperent" data-name="Icon / main / create tranperent" xmlns="http://www.w3.org/2000/svg" width="23" height="23">
    <defs>
        <style>
            .cls-2{fill:none;stroke:#ffca17;stroke-linecap:round;stroke-linejoin:bevel;stroke-miterlimit:10;stroke-width:2px}
        </style>
    </defs>
    <g id="그룹_713" data-name="그룹 713" transform="translate(0 .128)">
        <g id="Rectangle" style="fill:#313131">
            <path d="M18 22.15H5A4.155 4.155 0 0 1 .85 18V5A4.155 4.155 0 0 1 5 .85h13A4.155 4.155 0 0 1 22.15 5v13A4.155 4.155 0 0 1 18 22.15z" style="stroke:none" transform="translate(0 -.128)"/>
            <path d="M5 1.7C3.18 1.7 1.7 3.18 1.7 5v13c0 1.82 1.48 3.3 3.3 3.3h13c1.82 0 3.3-1.48 3.3-3.3V5c0-1.82-1.48-3.3-3.3-3.3H5M5 0h13a5 5 0 0 1 5 5v13a5 5 0 0 1-5 5H5a5 5 0 0 1-5-5V5a5 5 0 0 1 5-5z" style="fill:#313131;stroke:none" transform="translate(0 -.128)"/>
        </g>
        <g id="Group_5" data-name="Group 5" transform="translate(5.935 5.935)">
            <path id="Stroke_1" data-name="Stroke 1" class="cls-2" d="M.5 0v11.3" transform="translate(5.152)"/>
            <path id="Stroke_3" data-name="Stroke 3" class="cls-2" d="M11.3.5H0" transform="translate(0 5.152)"/>
        </g>
    </g>
</svg>
