<svg xmlns="http://www.w3.org/2000/svg" xmlns:xlink="http://www.w3.org/1999/xlink" width="37" height="37" viewBox="0 0 37 37">
    <defs>
        <path id="2xg3alynaa" d="M0 0L14.028 0 14.028 16.955 0 16.955z"/>
    </defs>
    <g fill="none" fill-rule="evenodd">
        <g>
            <g>
                <g transform="translate(-46 -725) translate(46 711) translate(0 14)">
                    <rect width="37" height="37" fill="#8F7DEB" fill-rule="nonzero" rx="6"/>
                    <g transform="translate(12 9)">
                        <mask id="fh5xp687mb" fill="#fff">
                            <use xlink:href="#2xg3alynaa"/>
                        </mask>
                        <path fill="#FFF" d="M5.192 2.366c.41-.851 1.356-1.308 2.273-1.1.904.206 1.56 1.015 1.572 1.944.005.324.001.649.001.989H4.992v-.988c0-.298.071-.578.2-.845m8.611 11.424l-.277-3.098-.319-3.543c-.07-.78-.134-1.56-.21-2.34-.04-.406-.274-.604-.684-.605h-2.055c0-.349.004-.674 0-.999C10.241 1.773 9.285.522 7.906.128 7.722.075 7.533.042 7.346 0h-.662c-.031.01-.06.025-.092.029-1.101.166-1.918.742-2.45 1.715-.253.463-.367.966-.37 1.494-.002.317-.001.635-.001.966h-2.02c-.474 0-.689.21-.729.685-.076.918-.16 1.835-.242 2.753l-.384 4.234c-.131 1.45-.26 2.901-.392 4.35-.04.431.22.728.654.728h12.713c.442 0 .695-.3.652-.742-.079-.807-.147-1.615-.22-2.422" mask="url(#fh5xp687mb)"/>
                    </g>
                </g>
            </g>
        </g>
    </g>
</svg>
