<svg xmlns="http://www.w3.org/2000/svg" xmlns:xlink="http://www.w3.org/1999/xlink" width="37" height="37" viewBox="0 0 37 37">
    <defs>
        <path id="r9hph6fxya" d="M0.864 0L20.864 0 20.864 12 0.864 12z"/>
    </defs>
    <g fill="none" fill-rule="evenodd">
        <g>
            <g>
                <g transform="translate(-46 -648) translate(46 634) translate(0 14)">
                    <rect width="37" height="37" fill="#FF9250" fill-rule="nonzero" rx="6"/>
                    <g transform="translate(8 13)">
                        <mask id="7cvp2b9scb" fill="#fff">
                            <use xlink:href="#r9hph6fxya"/>
                        </mask>
                        <path fill="#FFF" d="M20.38 7.27c-.462.472-1.213.568-1.798.22-.182-.109-.35-.242-.527-.362-.523-.356-1.102-.122-1.236.508-.04.191-.048.392-.05.59-.005.934-.003 1.868-.004 2.802v.095c-.01.567-.296.87-.844.874-1.047.005-2.093.002-3.14-.001-.11 0-.225-.02-.33-.051-.331-.1-.417-.354-.222-.649.146-.223.322-.428.44-.665.507-1.02.075-2.165-.964-2.593-.953-.392-2.02-.092-2.567.722-.42.625-.371 1.57.11 2.19.098.125.195.251.277.386.156.258.077.497-.204.592-.133.045-.28.067-.42.068-1.016.005-2.032.005-3.047.002-.606 0-.89-.297-.892-.922-.002-.952.002-1.906-.004-2.859 0-.197-.01-.399-.05-.59-.134-.616-.716-.849-1.23-.505-.224.15-.438.326-.68.433-.943.419-1.933-.142-2.1-1.185-.076-.477-.036-.941.234-1.364.443-.69 1.299-.913 2.005-.503.183.106.351.241.526.362.538.37 1.135.126 1.248-.53.051-.305.046-.622.048-.935.007-.819.001-1.638.003-2.456C4.963.285 5.245 0 5.89 0c.99 0 1.98-.002 2.971.002.142 0 .288.015.424.054.32.095.405.353.219.638-.148.228-.33.438-.449.681-.52 1.058-.027 2.219 1.062 2.625.93.346 1.982-.05 2.425-.691.468-.68.44-1.619-.07-2.269-.09-.115-.177-.232-.256-.355-.175-.27-.098-.52.2-.619.127-.042.268-.063.402-.063 1.028-.005 2.056-.005 3.084-.001.57.001.86.302.862.893.004.965 0 1.931.004 2.898.001.184.012.372.046.553.126.638.717.881 1.245.523.222-.151.437-.325.68-.432.935-.41 1.921.15 2.088 1.182.1.617 0 1.186-.448 1.65" mask="url(#7cvp2b9scb)"/>
                    </g>
                </g>
            </g>
        </g>
    </g>
</svg>
