<svg xmlns="http://www.w3.org/2000/svg" width="91.809" height="130.992" viewBox="0 0 91.809 130.992">
    <defs>
        <clipPath id="clip-path">
            <path id="패스_57" data-name="패스 57" class="cls-1" d="m161.828 749.554-.024-.016a4.68 4.68 0 0 1-2.178-3.972l.039-13.176h-5.492v6.691a6.234 6.234 0 0 1-.441 2.342l-.023.053c-.559 1.361-1.968 1.758-3.345 2.292a95.208 95.208 0 0 0-11.948 5.76 3.6 3.6 0 0 0-1.786 2.381c-.123 1.051.346 2.253 2.709 2.865 4.727 1.225 18.771.124 19.456 0 1.046-.191 8.811-1.56 3.033-5.218" transform="translate(-136.612 -732.389)"/>
        </clipPath>
        <clipPath id="clip-path-2">
            <path id="패스_58" data-name="패스 58" class="cls-1" d="m171.659 749.224.024-.016a4.688 4.688 0 0 0 2.18-3.971l-2.6-12.824h5.49a51.57 51.57 0 0 0 2.159 6.2c.934 1.954 1.849 3.643 3.778 4.628.147.074.291.141.43.2a95.412 95.412 0 0 1 11.946 5.76 3.586 3.586 0 0 1 1.786 2.382c.121 1.049-.346 2.251-2.709 2.864-4.727 1.225-18.769.126-19.456 0-1.046-.191-8.811-1.56-3.033-5.218" transform="translate(-169.542 -732.413)"/>
        </clipPath>
        <clipPath id="clip-path-3">
            <path id="패스_59" data-name="패스 59" class="cls-1" d="M178.308 712.859c-.1-.115-.207-.226-.31-.338" transform="translate(-177.998 -712.521)"/>
        </clipPath>
        <clipPath id="clip-path-4">
            <path id="패스_60" data-name="패스 60" class="cls-1" d="M14.475 8.44a.489.489 0 0 1-.068 0 1.694 1.694 0 0 1-1.475-.74c-.124-.178-3.353-4.638-10.54-1.357a1.689 1.689 0 0 1-1.4-3.074c6.143-2.8 10.658-1.189 13.137.824C17.639-.072 23.179-.332 25.9.208a1.69 1.69 0 0 1-.651 3.316c-.283-.053-6.547-1.172-9.436 4.05a1.689 1.689 0 0 1-1.338.866"/>
        </clipPath>
        <clipPath id="clip-path-5">
            <path id="패스_61" data-name="패스 61" class="cls-1" d="M1.407.01a1.585 1.585 0 1 0 1.753 1.4A1.584 1.584 0 0 0 1.407.01"/>
        </clipPath>
        <clipPath id="clip-path-6">
            <path id="패스_62" data-name="패스 62" class="cls-1" d="M2.7 4.844a2.43 2.43 0 1 1 2.143-2.686A2.432 2.432 0 0 1 2.7 4.844m-.356-3.15a.74.74 0 1 0 .818.653.74.74 0 0 0-.818-.653"/>
        </clipPath>
        <clipPath id="clip-path-7">
            <path id="패스_63" data-name="패스 63" class="cls-1" d="M1.408.01a1.585 1.585 0 1 0 1.752 1.4A1.587 1.587 0 0 0 1.408.01"/>
        </clipPath>
        <clipPath id="clip-path-8">
            <path id="패스_64" data-name="패스 64" class="cls-1" d="M2.7 4.844a2.43 2.43 0 1 1 2.144-2.686A2.432 2.432 0 0 1 2.7 4.844m-.354-3.15a.74.74 0 1 0 .818.653.742.742 0 0 0-.818-.653"/>
        </clipPath>
        <clipPath id="clip-path-9">
            <path id="패스_22" data-name="패스 22" class="cls-1" d="M25.308 0 6.462.229A6.538 6.538 0 1 0 6.621 13.3l18.846-.229A6.538 6.538 0 0 0 25.391 0z"/>
        </clipPath>
        <clipPath id="clip-path-10">
            <path id="사각형_97" data-name="사각형 97" class="cls-2" d="M0 0h566.481v1007.078H0z"/>
        </clipPath>
        <clipPath id="clip-path-11">
            <path id="사각형_96" data-name="사각형 96" class="cls-2" d="M0 0h66.089v47.207H0z"/>
        </clipPath>
        <clipPath id="clip-path-12">
            <path id="사각형_95" data-name="사각형 95" class="cls-2" d="M0 0h34.618v15.736H0z"/>
        </clipPath>
        <style>
            .cls-1,.cls-2{fill:none}.cls-1{clip-rule:evenodd}.cls-4{fill:#f4871f}.cls-10{fill:#231f20}
        </style>
    </defs>
    <g id="Character_main_party_paticipate" data-name="Character / main / party paticipate" transform="translate(1.027 .991)">
        <g id="그룹_429" data-name="그룹 429" transform="translate(14.59 107.044)">
            <g id="그룹_428" data-name="그룹 428" style="clip-path:url(#clip-path)">
                <path id="사각형_206" data-name="사각형 206" class="cls-4" transform="translate(-7.497 -7.496)" d="M0 0h42.328v37.95H0z"/>
            </g>
        </g>
        <g id="그룹_431" data-name="그룹 431" transform="translate(52.318 107.083)">
            <g id="그룹_430" data-name="그룹 430" style="clip-path:url(#clip-path-2)">
                <path id="사각형_207" data-name="사각형 207" class="cls-4" transform="translate(-7.497 -7.498)" d="M0 0h42.327v37.597H0z"/>
            </g>
        </g>
        <path id="패스_56" data-name="패스 56" d="M212.536 728.683a14.669 14.669 0 0 1-9.633-3.544c-3.1-2.525-8.2-7.383-14.674-10.644a36.667 36.667 0 0 0 5.795-49.549c.973-2.8.772-5-.605-6.532a4.909 4.909 0 0 0-2.176-1.391c.761-2.444.52-4.472-.728-6.059-2.577-3.284-9.012-3.538-19.122-.764a38.94 38.94 0 0 0-12.793-.7c-20.94 2.307-36.057 20.825-33.695 41.278a37.4 37.4 0 0 0 21.79 29.6 111.352 111.352 0 0 0-10.386 8.173 14.658 14.658 0 0 1-9.632 3.544 1.874 1.874 0 0 0-1.628 2.843c3.775 6.94 13.053 8.046 19.17 7.958l.438 3.346a15.6 15.6 0 0 0 8.371 10.97c7.687 3.839 20.787 7.715 35.175.384a15.517 15.517 0 0 0 8.36-12l.47-6.131c5.982-.193 13.758-1.734 17.132-7.939a1.873 1.873 0 0 0-1.629-2.843z" transform="translate(-124.661 -648.294)" style="stroke:#d6d6d6;stroke-miterlimit:10;stroke-width:2px;fill-rule:evenodd;fill:#fff"/>
        <g id="그룹_433" data-name="그룹 433" transform="translate(70.309 84.899)">
            <g id="그룹_432" data-name="그룹 432" style="clip-path:url(#clip-path-3)">
                <path id="사각형_208" data-name="사각형 208" transform="translate(-7.496 -7.496)" style="fill:#fff" d="M0 0h15.304v15.331H0z"/>
            </g>
        </g>
        <g id="그룹_435" data-name="그룹 435" transform="rotate(7 -155.216 235.432)">
            <g id="그룹_434" data-name="그룹 434" style="clip-path:url(#clip-path-4)">
                <path id="사각형_209" data-name="사각형 209" class="cls-10" transform="rotate(-6.43 -40.484 74.12)" d="M0 0h42.436v22.509H0z"/>
            </g>
        </g>
        <g id="그룹_437" data-name="그룹 437" transform="rotate(7 -264.576 387.63)">
            <g id="그룹_436" data-name="그룹 436" style="clip-path:url(#clip-path-5)">
                <path id="사각형_210" data-name="사각형 210" class="cls-10" transform="rotate(-6.43 -61.387 72.07)" d="M0 0h18.164v18.164H0z"/>
            </g>
        </g>
        <g id="그룹_439" data-name="그룹 439" transform="rotate(7 -257.884 381.131)">
            <g id="그룹_438" data-name="그룹 438" style="clip-path:url(#clip-path-6)">
                <path id="사각형_211" data-name="사각형 211" class="cls-10" transform="rotate(-6.43 -60.532 72.913)" d="M0 0h19.852v19.854H0z"/>
            </g>
        </g>
        <g id="그룹_441" data-name="그룹 441" transform="rotate(7 -270.339 275.025)">
            <g id="그룹_440" data-name="그룹 440" style="clip-path:url(#clip-path-7)">
                <path id="사각형_212" data-name="사각형 212" class="cls-10" transform="rotate(-6.43 -61.377 72.062)" d="M0 0h18.164v18.164H0z"/>
            </g>
        </g>
        <g id="그룹_443" data-name="그룹 443" transform="rotate(7 -263.634 268.994)">
            <g id="그룹_442" data-name="그룹 442" style="clip-path:url(#clip-path-8)">
                <path id="사각형_213" data-name="사각형 213" class="cls-10" transform="rotate(-6.43 -60.54 72.904)" d="M0 0h19.852v19.854H0z"/>
            </g>
        </g>
        <g id="그룹_184" data-name="그룹 184" transform="translate(23.78 42.152)">
            <g id="그룹_183" data-name="그룹 183" transform="translate(.232)" style="clip-path:url(#clip-path-9)">
                <g id="그룹_182" data-name="그룹 182" transform="translate(-430.662 -213.434)">
                    <g id="그룹_181" data-name="그룹 181" style="clip-path:url(#clip-path-10)">
                        <g id="그룹_180" data-name="그룹 180" transform="translate(413.846 196.695)" style="isolation:isolate">
                            <g id="그룹_179" data-name="그룹 179">
                                <g id="그룹_178" data-name="그룹 178" style="clip-path:url(#clip-path-11)">
                                    <g id="그룹_177" data-name="그룹 177" transform="translate(15.736 15.736)">
                                        <g id="그룹_176" data-name="그룹 176" style="clip-path:url(#clip-path-12)">
                                            <path id="사각형_94" data-name="사각형 94" class="cls-4" transform="translate(-23.089 -23.166)" d="M0 0h80.266v61.646H0z"/>
                                        </g>
                                    </g>
                                </g>
                            </g>
                        </g>
                    </g>
                </g>
            </g>
        </g>
        <g id="그룹_753" data-name="그룹 753" transform="translate(27.918 48.737)">
            <path id="선_1" data-name="선 1" style="stroke:#ad4f08;stroke-linecap:round;stroke-width:3px;fill:none" d="M0 0h24"/>
        </g>
    </g>
</svg>
