<svg xmlns="http://www.w3.org/2000/svg" width="75.114" height="108.469" viewBox="0 0 75.114 108.469">
    <defs>
        <clipPath id="clip-path">
            <path id="패스_67" data-name="패스 67" class="cls-1" d="m151.856 442.855-.018-.01a3.184 3.184 0 0 1-1.479-2.7l.026-8.949h-3.731v4.544a4.246 4.246 0 0 1-.3 1.591.239.239 0 0 0-.016.036c-.381.924-1.338 1.2-2.274 1.557a64.489 64.489 0 0 0-8.115 3.914 2.432 2.432 0 0 0-1.214 1.617c-.082.714.236 1.529 1.842 1.945 3.211.834 12.748.086 13.216 0 .71-.131 5.985-1.059 2.061-3.545" transform="translate(-134.726 -431.197)"/>
        </clipPath>
        <clipPath id="clip-path-2">
            <path id="패스_68" data-name="패스 68" class="cls-1" d="m164.262 442.638.018-.01a3.183 3.183 0 0 0 1.479-2.7l-1.759-8.71h3.731a34.8 34.8 0 0 0 1.466 4.212 6.017 6.017 0 0 0 2.567 3.144 3.056 3.056 0 0 0 .291.133 64.529 64.529 0 0 1 8.116 3.914 2.434 2.434 0 0 1 1.213 1.617c.082.714-.236 1.529-1.841 1.945-3.212.834-12.75.086-13.217 0-.71-.131-5.985-1.059-2.061-3.545" transform="translate(-162.824 -431.218)"/>
        </clipPath>
        <clipPath id="clip-path-3">
            <path id="패스_69" data-name="패스 69" d="M193.6 426.733a12.645 12.645 0 0 1-8.429-3.175c-2.8-2.337-7.459-6.915-13.388-9.831a33.451 33.451 0 0 0 13.117-45.516c1.129-2.4 1.173-4.375.131-5.876a4.281 4.281 0 0 0-1.754-1.452 5.745 5.745 0 0 0-.024-5.467c-1.913-3.176-7.481-4.033-16.553-2.555a33.448 33.448 0 0 0-27.622 60.626l-.191.245c-3.6 1.424-4.365 2.4-7.092 6.608a11.3 11.3 0 0 1-5.587 4.67 2.456 2.456 0 0 0-.943 4.018 10.774 10.774 0 0 0 9.8 3.24 18.708 18.708 0 0 0 5.213 6.593c14.936 12.554 47.581 5.072 43.991-4.788 0 0 7.9-.337 10.75-4.791a1.661 1.661 0 0 0-1.425-2.549" transform="translate(-122.196 -350.985)" style="stroke:#e5e5e5;stroke-miterlimit:10;stroke-width:2px;clip-rule:evenodd;fill:none"/>
        </clipPath>
        <clipPath id="clip-path-4">
            <path id="패스_71" data-name="패스 71" class="cls-1" d="M144.268 376.573a1.033 1.033 0 1 0 1.032 1.032 1.032 1.032 0 0 0-1.032-1.032" transform="translate(-143.236 -376.573)"/>
        </clipPath>
        <clipPath id="clip-path-5">
            <path id="패스_72" data-name="패스 72" class="cls-1" d="M142.755 377.676a1.583 1.583 0 1 1 1.583 1.583 1.584 1.584 0 0 1-1.583-1.583m1.1 0a.482.482 0 1 0 .482-.482.483.483 0 0 0-.482.482" transform="translate(-142.755 -376.093)"/>
        </clipPath>
        <clipPath id="clip-path-6">
            <path id="패스_73" data-name="패스 73" class="cls-1" d="M134.6 376.573a1.033 1.033 0 1 0 1.032 1.032 1.032 1.032 0 0 0-1.032-1.032" transform="translate(-133.568 -376.573)"/>
        </clipPath>
        <clipPath id="clip-path-7">
            <path id="패스_74" data-name="패스 74" class="cls-1" d="M133.087 377.676a1.583 1.583 0 1 1 1.583 1.583 1.585 1.585 0 0 1-1.583-1.583m1.1 0a.482.482 0 1 0 .481-.482.482.482 0 0 0-.481.482" transform="translate(-133.087 -376.093)"/>
        </clipPath>
        <clipPath id="clip-path-8">
            <path id="패스_75" data-name="패스 75" class="cls-1" d="M140.345 372.012a1.1 1.1 0 0 0 .916-.49c2.159-3.24 6.175-2.171 6.344-2.124a1.1 1.1 0 0 0 .6-2.118 8.311 8.311 0 0 0-7.857 1.889c-1.5-1.441-4.345-2.733-8.485-1.243a1.1 1.1 0 0 0 .746 2.071c4.91-1.767 6.754 1.418 6.773 1.45a1.1 1.1 0 0 0 .917.565h.044" transform="translate(-131.137 -366.99)"/>
        </clipPath>
        <clipPath id="clip-path-9">
            <path id="패스_76" data-name="패스 76" class="cls-1" d="M134.542 387.465a4.558 4.558 0 1 0 4.556-4.559 4.557 4.557 0 0 0-4.556 4.559" transform="translate(-134.542 -382.906)"/>
        </clipPath>
        <clipPath id="clip-path-10">
            <path id="패스_77" data-name="패스 77" class="cls-1" d="M132.74 387.727a6.622 6.622 0 1 1 6.622 6.622 6.629 6.629 0 0 1-6.622-6.622m4.128 0a2.493 2.493 0 1 0 2.494-2.493 2.5 2.5 0 0 0-2.494 2.493" transform="translate(-132.74 -381.105)"/>
        </clipPath>
        <style>
            .cls-1{fill:none;clip-rule:evenodd}.cls-4{fill:#f4871f}.cls-10{fill:#231f20}
        </style>
    </defs>
    <g id="Character_main_party_ban" data-name="Character / main / party ban" transform="translate(1 1)">
        <g id="그룹_471" data-name="그룹 471" transform="translate(14.352 91.875)">
            <g id="그룹_470" data-name="그룹 470" style="clip-path:url(#clip-path)">
                <path id="사각형_223" data-name="사각형 223" class="cls-4" transform="translate(-7.509 -7.51)" d="M0 0h33.587v30.612H0z"/>
            </g>
        </g>
        <g id="그룹_473" data-name="그룹 473" transform="translate(46.535 91.899)">
            <g id="그룹_472" data-name="그룹 472" style="clip-path:url(#clip-path-2)">
                <path id="사각형_224" data-name="사각형 224" class="cls-4" transform="translate(-7.509 -7.509)" d="M0 0h33.587v30.373H0z"/>
            </g>
        </g>
        <g id="그룹_475" data-name="그룹 475">
            <g id="그룹_474" data-name="그룹 474" style="clip-path:url(#clip-path-3)">
                <path id="사각형_225" data-name="사각형 225" transform="translate(-7.51 -7.509)" style="fill:#fff;stroke:#e5e5e5;stroke-miterlimit:10;stroke-width:2px" d="M0 0h88.104v109.495H0z"/>
            </g>
            <path id="패스_70" data-name="패스 70" d="M193.6 426.733a12.645 12.645 0 0 1-8.429-3.175c-2.8-2.337-7.459-6.915-13.388-9.831a33.451 33.451 0 0 0 13.117-45.516c1.129-2.4 1.173-4.375.131-5.876a4.281 4.281 0 0 0-1.754-1.452 5.745 5.745 0 0 0-.024-5.467c-1.913-3.176-7.481-4.033-16.553-2.555a33.448 33.448 0 0 0-27.622 60.626l-.191.245c-3.6 1.424-4.365 2.4-7.092 6.608a11.3 11.3 0 0 1-5.587 4.67 2.456 2.456 0 0 0-.943 4.018 10.774 10.774 0 0 0 9.8 3.24 18.708 18.708 0 0 0 5.213 6.593c14.936 12.554 47.581 5.072 43.991-4.788 0 0 7.9-.337 10.75-4.791a1.661 1.661 0 0 0-1.425-2.549" transform="translate(-122.196 -350.985)" style="fill-rule:evenodd;stroke:#e5e5e5;stroke-miterlimit:10;stroke-width:2px;fill:none"/>
        </g>
        <g id="그룹_477" data-name="그룹 477" transform="translate(24.099 29.309)">
            <g id="그룹_476" data-name="그룹 476" style="clip-path:url(#clip-path-4)">
                <path id="사각형_226" data-name="사각형 226" class="cls-10" transform="translate(-7.509 -7.509)" d="M0 0h17.082v17.084H0z"/>
            </g>
        </g>
        <g id="그룹_479" data-name="그룹 479" transform="translate(23.548 28.759)">
            <g id="그룹_478" data-name="그룹 478" style="clip-path:url(#clip-path-5)">
                <path id="사각형_227" data-name="사각형 227" class="cls-10" transform="translate(-7.509 -7.509)" d="M0 0h18.184v18.184H0z"/>
            </g>
        </g>
        <g id="그룹_481" data-name="그룹 481" transform="translate(13.025 29.309)">
            <g id="그룹_480" data-name="그룹 480" style="clip-path:url(#clip-path-6)">
                <path id="사각형_228" data-name="사각형 228" class="cls-10" transform="translate(-7.509 -7.509)" d="M0 0h17.082v17.084H0z"/>
            </g>
        </g>
        <g id="그룹_483" data-name="그룹 483" transform="translate(12.475 28.759)">
            <g id="그룹_482" data-name="그룹 482" style="clip-path:url(#clip-path-7)">
                <path id="사각형_229" data-name="사각형 229" class="cls-10" transform="translate(-7.509 -7.509)" d="M0 0h18.184v18.184H0z"/>
            </g>
        </g>
        <g id="그룹_485" data-name="그룹 485" transform="translate(10.241 18.332)">
            <g id="그룹_484" data-name="그룹 484" style="clip-path:url(#clip-path-8)">
                <path id="사각형_230" data-name="사각형 230" class="cls-10" transform="translate(-7.51 -7.509)" d="M0 0h32.886v20.04H0z"/>
            </g>
        </g>
        <g id="그룹_487" data-name="그룹 487" transform="translate(14.141 36.563)">
            <g id="그룹_486" data-name="그룹 486" style="clip-path:url(#clip-path-9)">
                <path id="사각형_231" data-name="사각형 231" transform="translate(-7.509 -7.509)" style="fill:#ad4f08" d="M0 0h24.133v24.133H0z"/>
            </g>
        </g>
        <g id="그룹_489" data-name="그룹 489" transform="translate(12.077 34.5)">
            <g id="그룹_488" data-name="그룹 488" style="clip-path:url(#clip-path-10)">
                <path id="사각형_232" data-name="사각형 232" class="cls-4" transform="translate(-7.51 -7.51)" d="M0 0h28.262v28.262H0z"/>
            </g>
        </g>
    </g>
</svg>
