<svg xmlns="http://www.w3.org/2000/svg" xmlns:xlink="http://www.w3.org/1999/xlink" width="64" height="54" viewBox="0 0 64 54">
    <defs>
        <filter id="6bkz7gpy6a">
            <feColorMatrix in="SourceGraphic" values="0 0 0 0 0.811765 0 0 0 0 0.807843 0 0 0 0 0.811765 0 0 0 1.000000 0"/>
        </filter>
        <path id="7p9xkh9b7b" d="M0.382 9.56L49.842 0 56.574 34.44 7.115 44z"/>
    </defs>
    <g fill="none" fill-rule="evenodd" opacity="1">
        <g filter="url(#6bkz7gpy6a)" transform="translate(-66 -231)">
            <g transform="rotate(9 -1436.247 582.7)">
                <mask id="tmbrmxij6c" fill="#fff">
                    <use xlink:href="#7p9xkh9b7b"/>
                </mask>
                <path fill="#FFCA17" d="M42.448 10.514c.195 1.011.695 1.88 1.373 2.543l-5.423 6.76-8.657-7.226c.802-1.042 1.168-2.422.895-3.837-.498-2.572-2.926-4.26-5.425-3.772-2.499.488-4.121 2.968-3.624 5.54.326 1.685 1.484 2.987 2.944 3.549l-5.662 9.47-7.939-4.447c.255-.762.328-1.601.163-2.454-.497-2.572-2.926-4.26-5.424-3.772-2.503.489-4.126 2.97-3.628 5.54.497 2.572 2.926 4.265 5.43 3.776.222-.043.435-.11.644-.182l7.494 18.465c11.464 1.05 22.046-.905 31.673-6.107l.476-20.056c.04-.008.079-.007.12-.015 2.498-.488 4.12-2.972 3.622-5.544-.497-2.571-2.926-4.26-5.424-3.772-2.5.488-4.126 2.97-3.628 5.54z" mask="url(#tmbrmxij6c)" transform="rotate(1 26.77 22.815)"/>
            </g>
        </g>
    </g>
</svg>
