<svg xmlns="http://www.w3.org/2000/svg" xmlns:xlink="http://www.w3.org/1999/xlink" width="108" height="94" viewBox="0 0 108 94">
    <defs>
        <path id="vy9tgrxvla" d="M0 0.424L69.991 0.424 69.991 76 0 76z"/>
    </defs>
    <g fill="none" fill-rule="evenodd">
        <g>
            <g>
                <path fill="#EFEFEF" fill-rule="nonzero" d="M107.154 18.838C107.154 8.435 97.046 0 84.577 0 72.108 0 62 8.435 62 18.838c0 8.926 7.442 16.397 17.43 18.341-.262 1.47-.922 3.246-2.484 4.821 0 0 6.436-.757 8.765-4.347 11.943-.493 21.443-8.727 21.443-18.815" transform="translate(-144 -383) translate(144 383)"/>
                <g fill="#FFF" transform="translate(-144 -383) translate(144 383) translate(74.275 18)">
                    <circle cx="2" cy="2" r="2"/>
                    <circle cx="11" cy="2" r="2"/>
                    <circle cx="19" cy="2" r="2"/>
                </g>
                <g>
                    <g transform="translate(-144 -383) translate(144 383) translate(0 17) translate(0 .577)">
                        <mask id="uv6ri9t0mb" fill="#fff">
                            <use xlink:href="#vy9tgrxvla"/>
                        </mask>
                        <path fill="#EFEFEF" d="M41.771 6.67C37.11 1.727 33.251-.303 30.28.653c-1.688.543-2.882 1.904-3.57 4.06-.69-.203-1.45-.26-2.25-.059-1.733.435-2.97 1.91-3.694 4.38C8.532 14.486 0 26.744 0 41.003 0 60.332 15.667 76 34.995 76c19.328 0 34.996-15.668 34.996-34.996 0-17.009-12.136-31.178-28.22-34.334" mask="url(#uv6ri9t0mb)"/>
                    </g>
                    <path fill="#FFF" d="M34.08 33.519c-.379 0-.736-.185-.947-.5-2.227-3.341-6.366-2.237-6.54-2.189-.602.168-1.229-.184-1.399-.785-.169-.602.177-1.226.78-1.398 1.79-.512 5.513-.645 8.096 1.946 1.547-1.484 4.48-2.816 8.747-1.28.59.212.895.862.683 1.452-.213.59-.863.895-1.452.683-2.122-.764-3.937-.746-5.392.053-1.088.598-1.588 1.441-1.593 1.45-.197.338-.558.555-.949.568h-.035M28.461 36.652L30.677 36.652 30.677 34.652 28.461 34.652zM38.125 36.652L40.341 36.652 40.341 34.652 38.125 34.652zM42.56 51.126H26.19c-3.104 0-5.62-2.516-5.62-5.62 0-3.103 2.516-5.62 5.62-5.62h16.37c3.104 0 5.62 2.517 5.62 5.62 0 3.104-2.516 5.62-5.62 5.62" transform="translate(-144 -383) translate(144 383) translate(0 17)"/>
                    <path fill="#EFEFEF" d="M45.022 46.125H23.667c-.324 0-.587-.263-.587-.587v-.406c0-.324.263-.587.587-.587h21.355c.324 0 .586.263.586.587v.406c0 .324-.262.587-.586.587" transform="translate(-144 -383) translate(144 383) translate(0 17)"/>
                </g>
            </g>
        </g>
    </g>
</svg>
