<svg xmlns="http://www.w3.org/2000/svg" xmlns:xlink="http://www.w3.org/1999/xlink" width="48" height="47" viewBox="0 0 48 47">
    <defs>
        <path id="m87z5catpa" d="M.163 16.5c0 8.93 7.32 16.169 16.35 16.169 9.03 0 16.352-7.24 16.352-16.17C32.865 7.57 25.544.33 16.514.33S.163 7.57.163 16.5"/>
    </defs>
    <g fill="none" fill-rule="evenodd">
        <g>
            <g>
                <g>
                    <g fill="#FFCA17" fill-rule="nonzero" transform="translate(-20 -41) translate(20 41)">
                        <circle cx="24" cy="23.5" r="23.5"/>
                    </g>
                    <path fill="#FFF" d="M14.626 48c0-2.253 1.778-11.08 3.97-11.08H30.43c2.192 0 3.97 8.827 3.97 11.08H14.626z" transform="translate(-20 -41) translate(20 41)"/>
                </g>
                <g transform="translate(-20 -41) translate(20 41) translate(7.5 7)">
                    <mask id="lrktllst9b" fill="#fff">
                        <use xlink:href="#m87z5catpa"/>
                    </mask>
                    <path fill="#FFF" d="M26.742 31.224H6.21c-5.047 0-9.176-4.083-9.176-9.074V1.845c0-4.99 4.129-9.074 9.176-9.074h20.532c5.047 0 9.176 4.084 9.176 9.074V22.15c0 4.99-4.13 9.074-9.176 9.074" mask="url(#lrktllst9b)"/>
                </g>
                <path fill="#FFF" d="M29.5 8.562s9.939-2.922 7.347 4.559c0 0 3.345-.133 1.64 2.933" transform="translate(-20 -41) translate(20 41)"/>
                <path fill="#000" d="M24.45 20.361c-.215 0-.407-.135-.484-.34-.348-.923-1.23-1.544-2.193-1.544-.97 0-1.828.599-2.185 1.525-.106.273-.407.406-.673.298-.266-.108-.396-.418-.291-.691.515-1.334 1.752-2.197 3.15-2.197 1.055 0 2.042.517 2.675 1.35.632-.833 1.62-1.35 2.676-1.35 1.397 0 2.633.863 3.148 2.197.106.273-.024.583-.29.691-.267.108-.568-.025-.673-.298-.358-.926-1.215-1.525-2.185-1.525-.964 0-1.845.62-2.193 1.544-.077.205-.269.34-.483.34" transform="translate(-20 -41) translate(20 41)"/>
                <path fill="#F5881F" d="M29.583 31.988H19.15c-1.586 0-2.872-1.32-2.872-2.95 0-1.63 1.286-2.951 2.872-2.951h10.432c1.586 0 2.872 1.321 2.872 2.95 0 1.63-1.286 2.951-2.872 2.951" transform="translate(-20 -41) translate(20 41)"/>
                <path fill="#AE4F08" d="M30.236 29.7H18.497c-.356 0-.644-.297-.644-.662 0-.366.288-.663.644-.663h11.74c.355 0 .644.297.644.663 0 .365-.289.662-.645.662" transform="translate(-20 -41) translate(20 41)"/>
                <path fill="#000" d="M22.045 23.63c0 .288-.226.52-.505.52s-.504-.232-.504-.52c0-.286.225-.518.504-.518s.505.232.505.519" transform="translate(-20 -41) translate(20 41)"/>
                <path fill="#000" d="M21.54 23.403c-.122 0-.222.102-.222.228 0 .125.1.228.222.228s.222-.103.222-.228c0-.126-.1-.228-.222-.228m0 1.037c-.434 0-.787-.363-.787-.81 0-.445.353-.808.787-.808.434 0 .787.363.787.809 0 .446-.353.809-.787.809M27.334 23.63c0 .288-.225.52-.504.52s-.505-.232-.505-.52c0-.286.226-.518.505-.518s.504.232.504.519" transform="translate(-20 -41) translate(20 41)"/>
                <path fill="#000" d="M26.83 23.403c-.122 0-.222.102-.222.228 0 .125.1.228.222.228s.222-.103.222-.228c0-.126-.1-.228-.222-.228m0 1.037c-.434 0-.787-.363-.787-.81 0-.445.353-.808.787-.808.434 0 .787.363.787.809 0 .446-.353.809-.787.809" transform="translate(-20 -41) translate(20 41)"/>
            </g>
        </g>
    </g>
</svg>
