<svg xmlns="http://www.w3.org/2000/svg" xmlns:xlink="http://www.w3.org/1999/xlink" width="54" height="62" viewBox="0 0 54 62">
    <defs>
        <path id="t6uf7234da" d="M.626 27.388c0 9.854 5.398 18.469 13.394 23.044l-.153.195 26.09-.003C48.139 46.1 53.692 37.38 53.692 27.388c0-4.519-1.147-8.946-3.325-12.87.895-1.906.931-3.47.103-4.661-.378-.545-.867-.909-1.391-1.151.72-1.666.715-3.119-.018-4.338-1.518-2.519-5.936-3.2-13.132-2.027-2.815-.988-5.763-1.486-8.77-1.486C12.529.855.626 12.757.626 27.388z"/>
        <path id="h87gib04jc" d="M.79.559V13h4.624V.415C3.265 1.541.79.559.79.559z"/>
        <path id="uh6qmb1q9e" d="M.678 12.045C.675 13.226.901 14.22 1.316 15h12.101c.188-.659.259-1.255.233-1.655-.099-1.516-1.043-2.049-1.613-2.233-.091-1.032-.884-1.716-2.409-1.504l-1.977.046-.611-7.305L4.212.43S.688 6.845.678 12.045z"/>
        <path id="fjwwrj3ayg" d="M7.081 2.349l-.61 7.305-1.977-.047c-1.526-.211-2.319.473-2.41 1.505-.57.184-1.512.717-1.611 2.233-.026.4.045.996.232 1.655h12.1c.415-.78.641-1.775.639-2.956C13.434 6.846 9.909.43 9.909.43L7.081 2.349z"/>
    </defs>
    <g fill="none" fill-rule="evenodd">
        <g>
            <g>
                <g>
                    <g transform="translate(-243 -171) translate(37 160) translate(206 11)">
                        <mask id="4ah3lzebwb" fill="#fff">
                            <use xlink:href="#t6uf7234da"/>
                        </mask>
                        <path fill="#FFF" d="M-4.374 55.626L58.692 55.626 58.692 -4.146 -4.374 -4.146z" mask="url(#4ah3lzebwb)"/>
                    </g>
                    <path fill="#E97B10" d="M22.56 50.627L14.583 59.637 17.66 62 38.095 62 39.467 61.155 44.277 54.51 32.571 49.415z" transform="translate(-243 -171) translate(37 160) translate(206 11)"/>
                    <path fill="#DDD" d="M26.927 50.825L16.719 44.669 16.719 48.888 26.865 52.181 26.865 52.199 26.889 52.191 27.078 52.252 27.078 52.129 37.224 48.834 37.224 44.615z" transform="translate(-243 -171) translate(37 160) translate(206 11)"/>
                    <path fill="#DDD" d="M27.185 50.18L14.583 45.055 14.583 48.312 26.597 52.689 39.466 49.38 39.466 45z" transform="translate(-243 -171) translate(37 160) translate(206 11)"/>
                    <path fill="#F6891F" d="M13.117 62L24.79 62 24.79 49.559 13.102 45.546zM29.413 49.415L29.401 62 41.086 62 41.086 46.001z" transform="translate(-243 -171) translate(37 160) translate(206 11)"/>
                    <g transform="translate(-243 -171) translate(37 160) translate(206 11) translate(24 49)">
                        <mask id="imdnacjsld" fill="#fff">
                            <use xlink:href="#h87gib04jc"/>
                        </mask>
                        <path fill="#E97B10" d="M-4.209 24.035L10.414 24.035 10.414 -4.585 -4.209 -4.585z" mask="url(#imdnacjsld)"/>
                    </g>
                    <g transform="translate(-243 -171) translate(37 160) translate(206 11) translate(6 47)">
                        <mask id="5zvgn3jzbf" fill="#fff">
                            <use xlink:href="#uh6qmb1q9e"/>
                        </mask>
                        <path fill="#FFF" d="M-4.322 24.105L18.654 24.105 18.654 -4.57 -4.322 -4.57z" mask="url(#5zvgn3jzbf)"/>
                    </g>
                    <g transform="translate(-243 -171) translate(37 160) translate(206 11) translate(34 47)">
                        <mask id="lqoqg714yh" fill="#fff">
                            <use xlink:href="#fjwwrj3ayg"/>
                        </mask>
                        <path fill="#FFF" d="M-4.532 24.105L18.444 24.105 18.444 -4.57 -4.532 -4.57z" mask="url(#lqoqg714yh)"/>
                    </g>
                    <g>
                        <path fill="#231F20" d="M3.019 7.354c.488 0 .883.396.883.883 0 .488-.395.883-.883.883s-.883-.395-.883-.883c0-.487.395-.883.883-.883" transform="translate(-243 -171) translate(37 160) translate(206 11) rotate(3 -378.979 556.138) rotate(3 3.019 8.237)"/>
                        <path fill="#231F20" d="M3.019 7.825c-.227 0-.412.185-.412.413 0 .227.185.412.412.412.228 0 .412-.185.412-.412 0-.228-.184-.413-.412-.413m0 1.766c-.746 0-1.354-.607-1.354-1.353 0-.747.608-1.354 1.354-1.354.747 0 1.354.607 1.354 1.354 0 .746-.607 1.353-1.354 1.353" transform="translate(-243 -171) translate(37 160) translate(206 11) rotate(3 -378.979 556.138) rotate(3 3.019 8.237)"/>
                        <path fill="#231F20" d="M12.476 7.85c.488 0 .883.396.883.883 0 .488-.395.883-.883.883s-.883-.395-.883-.883c0-.487.395-.883.883-.883" transform="translate(-243 -171) translate(37 160) translate(206 11) rotate(3 -378.979 556.138) rotate(3 12.476 8.733)"/>
                        <path fill="#231F20" d="M12.476 8.32c-.227 0-.412.185-.412.413 0 .227.185.412.412.412.227 0 .412-.185.412-.412 0-.228-.185-.413-.412-.413m0 1.766c-.746 0-1.354-.607-1.354-1.353 0-.747.608-1.354 1.354-1.354.746 0 1.354.607 1.354 1.354 0 .746-.608 1.353-1.354 1.353" transform="translate(-243 -171) translate(37 160) translate(206 11) rotate(3 -378.979 556.138) rotate(3 12.476 8.733)"/>
                        <path fill="#231F20" d="M8.165 5.05c-.314 0-.608-.158-.783-.42C5.534 1.858 2.1 2.774 1.955 2.814c-.5.14-1.019-.152-1.16-.652-.14-.499.147-1.017.646-1.159C2.926.578 6.016.467 8.16 2.617c1.284-1.23 3.717-2.337 7.257-1.062.49.177.743.716.567 1.205-.176.49-.715.743-1.204.567-4.199-1.512-5.776 1.211-5.79 1.24-.16.286-.459.468-.787.481l-.037.001" transform="translate(-243 -171) translate(37 160) translate(206 11) rotate(3 -378.979 556.138) rotate(3 8.4 2.902)"/>
                        <path fill="#AF4F08" d="M11.116 16.844c0 2.152-1.745 3.897-3.897 3.897-2.152 0-3.897-1.745-3.897-3.897 0-2.152 1.745-3.897 3.897-3.897 2.152 0 3.897 1.745 3.897 3.897" transform="translate(-243 -171) translate(37 160) translate(206 11) rotate(3 -378.979 556.138) rotate(3 7.219 16.844)"/>
                        <path fill="#F6891F" d="M7.219 14.712c-1.176 0-2.132.956-2.132 2.132 0 1.175.956 2.132 2.132 2.132 1.175 0 2.132-.957 2.132-2.132 0-1.176-.957-2.132-2.132-2.132m0 7.794c-3.122 0-5.662-2.54-5.662-5.662s2.54-5.663 5.662-5.663 5.662 2.54 5.662 5.663c0 3.122-2.54 5.662-5.662 5.662" transform="translate(-243 -171) translate(37 160) translate(206 11) rotate(3 -378.979 556.138) rotate(3 7.219 16.843)"/>
                    </g>
                </g>
            </g>
        </g>
    </g>
</svg>
