<svg xmlns="http://www.w3.org/2000/svg" width="45" height="26" viewBox="0 0 45 26">
    <defs>
        <clipPath id="nj5tcm5nfa">
            <rect width="42" height="26" rx="7" transform="translate(-.25)" style="fill:#ffca17"/>
        </clipPath>
        <clipPath id="e4skqu1oyb">
            <path data-name="Clip 2" d="M0 0h21.028v21.737H0z" style="fill:none"/>
        </clipPath>
        <clipPath id="dz9vdj0koc">
            <path data-name="Clip 2" d="m0 0 14.681.152.152 15.069-14.681-.152z" style="fill:none"/>
        </clipPath>
    </defs>
    <g transform="translate(-31 -448)">
        <rect data-name="Mask" width="45" height="26" rx="3" transform="translate(31 448)" style="fill:#ffca17"/>
        <g data-name="Group 3 + Group 3 Copy Mask" transform="translate(34.25 448)" style="clip-path:url(#nj5tcm5nfa)">
            <g data-name="Group 3">
                <path data-name="Clip 2" d="M0 0h21.028v21.737H0z" style="fill:none" transform="translate(24.408 7.957)"/>
                <g data-name="Group 3" style="clip-path:url(#e4skqu1oyb)" transform="translate(24.408 7.957)">
                    <path data-name="Fill 1" d="M10.514 21.737a10.155 10.155 0 0 1-4.093-.854 10.467 10.467 0 0 1-3.341-2.329A10.86 10.86 0 0 1 .826 15.1a11.244 11.244 0 0 1 0-8.461A10.86 10.86 0 0 1 3.08 3.183 10.467 10.467 0 0 1 6.422.854a10.232 10.232 0 0 1 8.185 0 10.467 10.467 0 0 1 3.342 2.329A10.86 10.86 0 0 1 20.2 6.638a11.244 11.244 0 0 1 0 8.461 10.86 10.86 0 0 1-2.253 3.455 10.467 10.467 0 0 1-3.342 2.329 10.154 10.154 0 0 1-4.091.854zm0-20.579a9.072 9.072 0 0 0-3.656.763A9.351 9.351 0 0 0 3.873 4a9.7 9.7 0 0 0-2.014 3.089 10.045 10.045 0 0 0 0 7.559 9.7 9.7 0 0 0 2.013 3.086 9.351 9.351 0 0 0 2.986 2.081 9.14 9.14 0 0 0 7.312 0 9.351 9.351 0 0 0 2.986-2.081 9.7 9.7 0 0 0 2.013-3.086 10.045 10.045 0 0 0 0-7.559A9.7 9.7 0 0 0 17.156 4a9.351 9.351 0 0 0-2.986-2.078 9.072 9.072 0 0 0-3.656-.763zm0 18.768a8.463 8.463 0 0 1-3.414-.711 8.723 8.723 0 0 1-2.785-1.941 9.051 9.051 0 0 1-1.875-2.879 9.371 9.371 0 0 1 0-7.052 9.051 9.051 0 0 1 1.878-2.88A8.723 8.723 0 0 1 7.1 2.522a8.527 8.527 0 0 1 6.822 0 8.724 8.724 0 0 1 2.788 1.941 9.051 9.051 0 0 1 1.878 2.879 9.371 9.371 0 0 1 0 7.052 9.051 9.051 0 0 1-1.878 2.879 8.724 8.724 0 0 1-2.785 1.941 8.463 8.463 0 0 1-3.411.713zm-.22-8.946h.373c.329 1.736.647 3.253.942 4.633a4.826 4.826 0 0 0 .692.04 5.348 5.348 0 0 0 .716-.04c.217-.972.556-2.6.884-4.166l.1-.479h.02c.214 0 .411 0 .6-.006h.466c.021-.469.021-1.006 0-1.552-.228-.01-.472-.01-.756-.01l.445-2.183a5.349 5.349 0 0 0-1.356-.438c-.064.319-.161.832-.274 1.426l-.223 1.175H12.9c-.435 0-.885 0-1.363-.011l-.383-2a4.6 4.6 0 0 0-.589-.028c-.265 0-.555.011-.757.028l-.383 2c-.486.011-.944.011-1.387.011l-.223-1.175C7.7 7.607 7.6 7.094 7.54 6.775a5.468 5.468 0 0 0-1.356.438L6.629 9.4H6.51c-.255 0-.45 0-.636.01-.02.533-.02 1.07 0 1.552h.466c.2 0 .4.006.621.006.366 1.752.756 3.575.994 4.644a5.164 5.164 0 0 0 .707.04 4.81 4.81 0 0 0 .691-.04c.291-1.362.607-2.865.942-4.633zm1.967 2.128-.414-2.128h.787c-.151.833-.287 1.608-.372 2.128zm-3.561 0a152.98 152.98 0 0 0-.372-2.128h.787z" style="opacity:.291;fill:#fff"/>
                </g>
            </g>
            <g data-name="Group 3 Copy">
                <path data-name="Clip 2" d="m0 0 14.681.152.152 15.069-14.681-.152z" style="fill:none" transform="rotate(19 38.27 59.554)"/>
                <g data-name="Group 3 Copy" style="clip-path:url(#dz9vdj0koc)" transform="rotate(19 38.27 59.554)">
                    <path data-name="Fill 1" d="M7.417 15.07a7.22 7.22 0 0 1-2.863-.622A7.519 7.519 0 0 1 2.2 12.809 7.769 7.769 0 0 1 0 7.459a7.573 7.573 0 0 1 .548-2.927A7.318 7.318 0 0 1 2.1 2.154 7.075 7.075 0 0 1 7.265 0a7.22 7.22 0 0 1 2.863.622 7.518 7.518 0 0 1 2.349 1.639 7.77 7.77 0 0 1 2.2 5.35 7.573 7.573 0 0 1-.547 2.927 7.318 7.318 0 0 1-1.549 2.379 7.075 7.075 0 0 1-5.164 2.153zM7.273.8a6.32 6.32 0 0 0-4.617 1.927 6.537 6.537 0 0 0-1.384 2.125 6.766 6.766 0 0 0-.489 2.615 6.941 6.941 0 0 0 1.969 4.779 6.717 6.717 0 0 0 2.1 1.464 6.449 6.449 0 0 0 2.558.555 6.32 6.32 0 0 0 4.617-1.924 6.538 6.538 0 0 0 1.384-2.125A6.765 6.765 0 0 0 13.9 7.6a6.941 6.941 0 0 0-1.969-4.78 6.716 6.716 0 0 0-2.1-1.464A6.45 6.45 0 0 0 7.273.8zM7.4 13.815a6.017 6.017 0 0 1-2.382-.515 6.266 6.266 0 0 1-1.958-1.369 6.475 6.475 0 0 1-1.837-4.459 6.312 6.312 0 0 1 .456-2.439A6.1 6.1 0 0 1 2.97 3.05a5.9 5.9 0 0 1 4.308-1.795 6.017 6.017 0 0 1 2.386.518 6.266 6.266 0 0 1 1.958 1.366A6.476 6.476 0 0 1 13.458 7.6 6.312 6.312 0 0 1 13 10.038a6.1 6.1 0 0 1-1.291 1.982A5.9 5.9 0 0 1 7.4 13.815zm-.216-6.2h.26c.241 1.2.474 2.258.69 3.219a3.411 3.411 0 0 0 .484.033 3.754 3.754 0 0 0 .5-.023c.145-.676.372-1.805.591-2.9l.063-.315h.759c.011-.325.008-.7-.011-1.076a11.65 11.65 0 0 0-.528-.013l.3-1.51a3.811 3.811 0 0 0-.95-.314c-.043.223-.108.584-.184 1l-.144.792h-.025c-.3 0-.614-.007-.945-.018l-.282-1.38a3.26 3.26 0 0 0-.411-.024c-.185 0-.388 0-.529.014l-.253 1.385h-.968l-.159-.793v-.009c-.084-.42-.157-.783-.2-1.007a3.755 3.755 0 0 0-.943.294l.326 1.517h-.531c-.011.369-.007.741.011 1.076.1 0 .21 0 .325.007.137 0 .278.007.433.009.267 1.213.552 2.479.726 3.227a3.652 3.652 0 0 0 .494.033 3.379 3.379 0 0 0 .482-.023c.193-.941.4-1.981.625-3.205zM6.09 9.075c-.06-.345-.161-.883-.275-1.478l.549.006zm2.486.025-.3-1.478.549.006c-.1.574-.189 1.111-.245 1.472z" transform="translate(.076 .076)" style="opacity:.265;fill:#fff"/>
                </g>
            </g>
        </g>
    </g>
</svg>
