<svg id="Icon_main_activate_people" data-name="Icon / main / activate people" xmlns="http://www.w3.org/2000/svg" width="25" height="25">
    <defs>
        <style>
            .cls-2{fill:#fff}
        </style>
    </defs>
    <rect id="사각형_318" data-name="사각형 318" width="25" height="25" rx="6" style="fill:#ffca17"/>
    <g id="그룹_770" data-name="그룹 770" transform="translate(8213.318 -7355.682)">
        <g id="그룹_765" data-name="그룹 765" transform="translate(-8209.294 7359.8)">
            <path id="Clip_2" data-name="Clip 2" class="cls-2" d="M0 8.381a8.429 8.429 0 0 0 8.476 8.382 8.429 8.429 0 0 0 8.476-8.382A8.429 8.429 0 0 0 8.476 0 8.429 8.429 0 0 0 0 8.381"/>
            <path id="Fill_4" data-name="Fill 4" class="cls-2" d="M0 .292s5.152-1.516 3.808 2.362c0 0 1.734-.069.85 1.52" transform="translate(11.32 .347)"/>
            <path id="Fill_8" data-name="Fill 8" d="M3.038 1.529a.268.268 0 0 1-.251-.176 1.228 1.228 0 0 0-1.137-.8 1.213 1.213 0 0 0-1.133.79.266.266 0 0 1-.347.157.279.279 0 0 1-.151-.358A1.748 1.748 0 0 1 1.651 0a1.751 1.751 0 0 1 1.387.7 1.733 1.733 0 0 1 3.019.439.279.279 0 0 1-.151.358.266.266 0 0 1-.349-.155 1.213 1.213 0 0 0-1.132-.79 1.227 1.227 0 0 0-1.136.8.269.269 0 0 1-.251.176" transform="translate(5.663 5.226)"/>
            <path id="Fill_10" data-name="Fill 10" d="M6.9 3.059H1.489A1.51 1.51 0 0 1 0 1.53 1.51 1.51 0 0 1 1.489 0H6.9a1.51 1.51 0 0 1 1.485 1.53A1.51 1.51 0 0 1 6.9 3.059" transform="translate(4.466 9.723)" style="fill:#f5881f"/>
            <path id="Fill_12" data-name="Fill 12" d="M6.419.687H.334A.339.339 0 0 1 0 .343.339.339 0 0 1 .334 0h6.085a.339.339 0 0 1 .334.343.339.339 0 0 1-.334.343" transform="translate(5.282 10.909)" style="fill:#ae4f08"/>
            <path id="Fill_14" data-name="Fill 14" d="M.523.269a.265.265 0 0 1-.262.269A.265.265 0 0 1 0 .269.265.265 0 0 1 .261 0a.265.265 0 0 1 .262.269" transform="translate(6.932 8.181)"/>
            <path id="Fill_16" data-name="Fill 16" d="M.408.839A.414.414 0 0 1 0 .419.414.414 0 0 1 .408 0a.414.414 0 0 1 .408.419.414.414 0 0 1-.408.42zm0-.539a.118.118 0 1 0 .115.119A.117.117 0 0 0 .408.3z" transform="translate(6.786 8.03)"/>
            <path id="Fill_18" data-name="Fill 18" d="M.523.269a.265.265 0 0 1-.262.269A.265.265 0 0 1 0 .269.265.265 0 0 1 .261 0a.265.265 0 0 1 .262.269" transform="translate(9.674 8.181)"/>
            <path id="Fill_20" data-name="Fill 20" d="M.408.839A.414.414 0 0 1 0 .419.414.414 0 0 1 .408 0a.414.414 0 0 1 .408.419.414.414 0 0 1-.408.42zm0-.539a.118.118 0 1 0 .115.119A.117.117 0 0 0 .408.3z" transform="translate(9.527 8.03)"/>
        </g>
    </g>
</svg>
