<svg xmlns="http://www.w3.org/2000/svg" width="15" height="20" viewBox="0 0 15 20">
    <g fill="none" fill-rule="evenodd">
        <g fill="#313131">
            <g>
                <path stroke="#313131" stroke-width="2" d="M5.62 3.328l-.08.038c-.872.41-1.598 1.024-2.15 1.867-.6.919-.876 2.029-.892 3.146-.016 1.215-.057 2.428-.08 3.644-.004.175-.065.342-.17.476-.292.36-.582.72-.871 1.082-.149.184-.33.347-.377.602v.184c.022.066.038.136.066.2.125.27.314.43.619.433l11.629-.002c.178-.003.337-.044.47-.189.226-.246.321-.672.053-.987-.095-.11-.187-.223-.278-.336-.242-.302-.483-.605-.724-.91-.16-.202-.248-.457-.248-.719 0-1.282-.009-2.563-.015-3.845-.003-.295-.022-.59-.086-.878-.345-1.557-1.184-2.72-2.49-3.514l-.005-.003c-.37-.225-.778-.379-1.197-.47-1.062-.236-2.121-.196-3.174.181z" transform="translate(-325.000000, -40.000000) translate(325.000000, 40.000000)"/>
                <path fill-rule="nonzero" d="M7.5 19c1.38 0 2.5-1.12 2.5-2.5H5C5 17.88 6.12 19 7.5 19z" transform="translate(-325.000000, -40.000000) translate(325.000000, 40.000000)"/>
                <path fill-rule="nonzero" d="M7.5 2.5C8.88 2.5 10 1.38 10 0H5c0 1.38 1.12 2.5 2.5 2.5z" transform="translate(-325.000000, -40.000000) translate(325.000000, 40.000000) translate(7.500000, 1.250000) scale(1, -1) translate(-7.500000, -1.250000)"/>
            </g>
        </g>
    </g>
</svg>
