<svg id="Icon_notif_system" data-name="Icon / notif / system" xmlns="http://www.w3.org/2000/svg" width="37" height="37" viewBox="0 0 37 37">
    <defs>
        <clipPath id="clip-path">
            <path id="Clip_2" data-name="Clip 2" class="cls-1" d="M0 0h24v24H0z"/>
        </clipPath>
        <style>
            .cls-1{fill:#fff}
        </style>
    </defs>
    <rect id="Rectangle_Copy_15" data-name="Rectangle Copy 15" width="37" height="37" rx="6" style="fill:#bebebe"/>
    <g id="Group_3" data-name="Group 3" transform="translate(6.5 6.5)">
        <path id="Clip_2-2" data-name="Clip 2" d="M0 0h24v24H0z" style="fill:none"/>
        <g id="Group_3-2" data-name="Group 3" style="clip-path:url(#clip-path)">
            <path id="Fill_1" data-name="Fill 1" class="cls-1" d="M9.751 24c-.551 0-.816-.221-.86-.716-.015-.166-.044-.334-.072-.5-.022-.129-.045-.262-.061-.393v-.022c-.251-2.087-.251-2.087-2.137-3.05a.692.692 0 0 0-.308-.061 1.222 1.222 0 0 0-.393.067c-.773.272-1.566.579-2.425.938a1.026 1.026 0 0 1-.4.093.716.716 0 0 1-.624-.432C1.778 18.748.994 17.413.2 16.1a.717.717 0 0 1 .227-1.094l.189-.139C1.2 14.443 1.8 14 2.35 13.516a1.625 1.625 0 0 0 .419-.852c.385-1.6-.574-2.484-1.669-3.2-1.322-.872-1.3-.909-.73-1.845.08-.131.169-.279.267-.448.209-.363.429-.726.641-1.078.349-.579.711-1.177 1.033-1.782.242-.452.511-.662.846-.662a1.313 1.313 0 0 1 .634.2 2.421 2.421 0 0 0 .412.168c.076.026.155.052.23.082l.019.008a5.521 5.521 0 0 0 1.791.536 4.041 4.041 0 0 0 1.907-.848.93.93 0 0 0 .355-.58c.17-.9.291-1.777.387-2.518A.7.7 0 0 1 9.7 0h.009c.805 0 1.548.006 2.269.006.783 0 1.546 0 2.267-.008h.014a.722.722 0 0 1 .833.751c.016.2.049.393.08.584.02.124.041.252.058.378.267 2.057.272 2.1 2.163 2.983a.589.589 0 0 0 .249.046 1.4 1.4 0 0 0 .457-.087c.325-.115.651-.246.966-.372.477-.191.97-.388 1.469-.537a.652.652 0 0 1 .184-.023.955.955 0 0 1 .7.265 84.805 84.805 0 0 1 1.9 3.162l.534.913a1.206 1.206 0 0 1 .082.19c.017.045.036.1.061.157-.034.047-.067.1-.1.151a1.711 1.711 0 0 1-.268.345c-.191.172-.4.328-.608.479-.079.058-.157.115-.233.173l-.015.011c-1.658 1.258-1.658 1.258-1.585 3.288a.941.941 0 0 0 .34.6c.582.482 1.233.983 1.99 1.532a.746.746 0 0 1 .224 1.152c-.8 1.3-1.513 2.511-2.188 3.7a.818.818 0 0 1-.71.514 1.159 1.159 0 0 1-.489-.129c-.214-.1-.439-.188-.657-.272l-.264-.1-.017-.007a5.353 5.353 0 0 0-1.74-.523c-.515 0-.946.28-1.89.893a.966.966 0 0 0-.335.6 39.823 39.823 0 0 0-.367 2.444.74.74 0 0 1-.848.74h-.01c-.74-.007-1.49-.01-2.23-.01s-1.491 0-2.231.01zm2.238-16.2a4.262 4.262 0 0 0-4.308 4.18 4.257 4.257 0 0 0 4.284 4.22h.018a4.259 4.259 0 0 0 4.306-4.178 4.123 4.123 0 0 0-1.25-2.973A4.322 4.322 0 0 0 12 7.8z" transform="translate(.001)"/>
        </g>
    </g>
</svg>
