<svg id="Icon_party" data-name="Icon / party" xmlns="http://www.w3.org/2000/svg" width="14" height="10">
    <defs>
        <style>
            .cls-1{fill:#ffbc26}
        </style>
    </defs>
    <g id="Group_9_Copy" data-name="Group 9 Copy">
        <path id="Fill_1" data-name="Fill 1" class="cls-1" d="M4.844 2.421A2.422 2.422 0 1 1 2.422 0a2.422 2.422 0 0 1 2.422 2.421" transform="translate(6.946 .001)"/>
        <path id="Fill_3" data-name="Fill 3" class="cls-1" d="M4.189 2.094A2.095 2.095 0 1 1 2.094 0a2.094 2.094 0 0 1 2.1 2.094" transform="translate(1.853 .655)"/>
        <path id="Fill_5" data-name="Fill 5" class="cls-1" d="M7.915 4.247H.587A.587.587 0 0 1 0 3.66 3.66 3.66 0 0 1 3.659 0h1.184A3.66 3.66 0 0 1 8.5 3.66a.587.587 0 0 1-.587.587" transform="translate(5.095 5.386)"/>
        <path id="Fill_7" data-name="Fill 7" class="cls-1" d="M5.6.089A3.572 3.572 0 0 0 4.843 0H3.659A3.659 3.659 0 0 0 0 3.659a.587.587 0 0 0 .587.588H4l-.029-.137A4.019 4.019 0 0 1 5.6.089" transform="translate(0 5.402)"/>
    </g>
</svg>
