<svg xmlns="http://www.w3.org/2000/svg" width="32" height="37" viewBox="0 0 32 37">
    <g fill="none" fill-rule="evenodd" opacity=".2">
        <g fill="#000" fill-rule="nonzero">
            <path d="M108.17 205.942c-3.967 3.926-10.423 3.926-14.39 0-3.969-3.925-3.969-10.313 0-14.24 3.967-3.925 10.423-3.925 14.39 0 3.969 3.927 3.969 10.315 0 14.24m2.215-16.43c-2.196-2.173-4.976-3.426-7.844-3.76v-9.821l2.304 2.282c.275.272.636.408.996.408s.721-.136.996-.408c.55-.545.55-1.427 0-1.972l-4.866-4.816c-.55-.545-1.442-.545-1.992 0l-4.866 4.816c-.55.545-.55 1.427 0 1.972.55.544 1.442.544 1.992 0l2.304-2.282V185.752c-2.868.334-5.648 1.587-7.844 3.76-5.188 5.134-5.188 13.487 0 18.621 5.189 5.134 13.631 5.134 18.82 0s5.189-13.487 0-18.621" transform="translate(-83 -174) rotate(33 100.975 191.5)"/>
        </g>
    </g>
</svg>
