<svg id="Icon_crown" data-name="Icon / crown" xmlns="http://www.w3.org/2000/svg" width="14" height="10">
    <defs>
        <clipPath id="clip-path">
            <path id="Clip_2" data-name="Clip 2" class="cls-1" d="M0 0h13v9H0z" transform="translate(.233 .367)"/>
        </clipPath>
        <style>
            .cls-1{fill:none}
        </style>
    </defs>
    <g id="Group_3_Copy_7" data-name="Group 3 Copy 7">
        <path id="Clip_2-2" data-name="Clip 2" class="cls-1" d="M0 0h13v9H0z" transform="translate(.233 .367)"/>
        <g id="Group_3_Copy_7-2" data-name="Group 3 Copy 7" style="clip-path:url(#clip-path)">
            <path id="Fill_1" data-name="Fill 1" d="M11.811 1.013a1.2 1.2 0 0 0-1.19 1.2 1.213 1.213 0 0 0 .223.7l-1.7 1.42L7.3 2.116a1.189 1.189 0 1 0-1.392.115l-1.9 2.084-1.79-1.495A1.2 1.2 0 0 0 1.19 1.013a1.2 1.2 0 0 0 0 2.408 1.3 1.3 0 0 0 .172-.014l.994 4.964a14.323 14.323 0 0 0 8.321.02l1.1-4.973h.031a1.2 1.2 0 0 0 0-2.408" transform="translate(.233 .367)" style="fill:#ffbc26"/>
        </g>
    </g>
</svg>
