<svg xmlns="http://www.w3.org/2000/svg" width="64" height="64" viewBox="0 0 64 64">
    <g data-name="그룹 876" transform="translate(-105.5 -232)">
        <rect data-name="Rectangle Copy 16" width="64" height="64" rx="7" transform="translate(105.5 232)" style="fill:#c4c4c4"/>
        <g data-name="그룹 847">
            <path data-name="Clip 2" d="M0 16.737a16.738 16.738 0 0 0 16.737 16.738 16.738 16.738 0 0 0 16.738-16.738A16.737 16.737 0 0 0 16.737 0 16.737 16.737 0 0 0 0 16.737" style="fill:#fff" transform="translate(120.092 248.117)"/>
            <path data-name="Fill 4" d="M0 .586s10.362-3.047 7.66 4.753c0 0 3.488-.139 1.71 3.058" transform="translate(142.24 248.815)" style="fill:#fff"/>
            <path data-name="Fill 8" d="M6.111 3.075a.54.54 0 0 1-.5-.355 2.47 2.47 0 0 0-2.29-1.61A2.44 2.44 0 0 0 1.043 2.7a.536.536 0 0 1-.7.311.56.56 0 0 1-.3-.721A3.516 3.516 0 0 1 3.321 0a3.523 3.523 0 0 1 2.79 1.407 3.486 3.486 0 0 1 6.073.883.56.56 0 0 1-.3.721.536.536 0 0 1-.7-.311A2.44 2.44 0 0 0 8.9 1.11a2.468 2.468 0 0 0-2.285 1.61.541.541 0 0 1-.5.355" transform="translate(131.159 258.545)" style="fill:#7e7e7e"/>
            <path data-name="Fill 10" d="M13.871 6.153H2.994A3.036 3.036 0 0 1 0 3.077 3.036 3.036 0 0 1 2.994 0h10.877a3.036 3.036 0 0 1 2.994 3.077 3.036 3.036 0 0 1-2.994 3.076" transform="translate(128.752 267.501)" style="fill:#e3e3e3"/>
            <path data-name="Fill 12" d="M12.911 1.381H.672A.682.682 0 0 1 0 .691.682.682 0 0 1 .672 0h12.239a.681.681 0 0 1 .672.691.681.681 0 0 1-.672.69" transform="translate(130.395 269.895)" style="fill:#7e7e7e"/>
            <path data-name="Fill 14" d="M1.052.541a.533.533 0 0 1-.526.541A.533.533 0 0 1 0 .541.533.533 0 0 1 .526 0a.533.533 0 0 1 .526.541" transform="translate(133.773 264.449)" style="fill:#7e7e7e"/>
            <path data-name="Fill 16" d="M.821 1.687A.833.833 0 0 1 0 .844.833.833 0 0 1 .821 0a.833.833 0 0 1 .82.844.833.833 0 0 1-.82.843zm0-1.081a.237.237 0 1 0 .231.237.235.235 0 0 0-.231-.237z" transform="translate(133.479 264.146)" style="fill:#7e7e7e"/>
            <path data-name="Fill 18" d="M1.052.541a.533.533 0 0 1-.526.541A.533.533 0 0 1 0 .541.533.533 0 0 1 .526 0a.533.533 0 0 1 .526.541" transform="translate(139.184 264.449)" style="fill:#7e7e7e"/>
            <path data-name="Fill 20" d="M.821 1.687A.833.833 0 0 1 0 .844.833.833 0 0 1 .821 0a.833.833 0 0 1 .82.844.833.833 0 0 1-.82.843zm0-1.081a.237.237 0 1 0 .231.237.235.235 0 0 0-.231-.237z" transform="translate(138.889 264.146)" style="fill:#7e7e7e"/>
        </g>
    </g>
</svg>
