<svg xmlns="http://www.w3.org/2000/svg" xmlns:xlink="http://www.w3.org/1999/xlink" width="15" height="15" viewBox="0 0 15 15">
    <defs>
        <path id="ut3pnwfjoa" d="M0 0L14.425 0 14.425 14.423 0 14.423z"/>
    </defs>
    <g fill="none" fill-rule="evenodd" opacity=".48">
        <g>
            <g>
                <g transform="translate(-70 -468) translate(36 455) translate(34 13)">
                    <mask id="4n7gdxrwlb" fill="#fff">
                        <use xlink:href="#ut3pnwfjoa"/>
                    </mask>
                    <path fill="#000" d="M5.613 13.632c-.95.49-1.965.824-3.064.788-.924-.03-2.43-1.359-2.536-2.278-.114-.973.567-1.498 1.229-1.997.659-.496 1.349-1.03 2.248-.654.32.134.616.391.85.655.41.46.853.483 1.352.22.248-.13.517-.254.713-.446C7.593 8.756 8.772 7.581 9.93 6.387c.217-.223.353-.536.49-.824.202-.419.15-.787-.2-1.148-1.095-1.128-1.124-1.717-.213-3 1.283-1.806 2.194-1.865 3.754-.28.453.458.72.957.653 1.612-.003.191-.332 1.914-.751 2.762-1.775 3.592-4.493 6.288-8.051 8.123z" mask="url(#4n7gdxrwlb)"/>
                </g>
            </g>
        </g>
    </g>
</svg>
