<svg id="Icon_notif_billing" data-name="Icon / notif / billing" xmlns="http://www.w3.org/2000/svg" width="37" height="37" viewBox="0 0 37 37">
    <defs>
        <style>
            .cls-2{fill:#fff}
        </style>
    </defs>
    <rect id="Rectangle_Copy_13" data-name="Rectangle Copy 13" width="37" height="37" rx="6" style="fill:#3c94ff"/>
    <g id="그룹_841" data-name="그룹 841" transform="translate(-1945.982 -641.33)">
        <path id="패스_194" data-name="패스 194" class="cls-2" d="M1989.069 696.871v2.986a.247.247 0 0 0 .426.17l3.069-3.241a.248.248 0 0 0-.179-.418h-2.815a.5.5 0 0 0-.501.503z" transform="translate(-20.115 -29.65)"/>
        <g id="그룹_841-2" data-name="그룹 841" transform="translate(1956.983 649.455)">
            <path id="패스_195" data-name="패스 195" class="cls-2" d="M1969.945 649.455h-10.391a2.572 2.572 0 0 0-2.571 2.572v15.856a2.572 2.572 0 0 0 2.571 2.572h7.393a.48.48 0 0 0 .479-.48v-3.351c0-.971.4-1.526 1.471-1.526h3.139a.48.48 0 0 0 .48-.48v-12.591a2.572 2.572 0 0 0-2.571-2.572zm-2.792 12.572a2.677 2.677 0 0 1-1.4.9.391.391 0 0 0-.339.446c.009.246 0 .5 0 .742a.3.3 0 0 1-.329.343 15.24 15.24 0 0 1-.8 0 .322.322 0 0 1-.346-.365c0-.18 0-.363-.005-.543 0-.4-.017-.415-.4-.476a5.041 5.041 0 0 1-1.421-.407c-.353-.173-.391-.261-.289-.631.076-.275.152-.55.237-.822.1-.315.185-.355.476-.2a4.621 4.621 0 0 0 1.578.472 1.934 1.934 0 0 0 1.035-.135.806.806 0 0 0 .192-1.413 2.4 2.4 0 0 0-.588-.346 14.3 14.3 0 0 1-1.613-.725 2.283 2.283 0 0 1-1.291-2.183 2.4 2.4 0 0 1 1.755-2.227c.431-.156.434-.149.436-.6v-.457c.01-.339.066-.4.4-.408h.313c.72 0 .72 0 .722.718 0 .51 0 .512.51.59a4.5 4.5 0 0 1 1.118.334.326.326 0 0 1 .211.434c-.093.31-.175.623-.275.931-.095.291-.187.334-.467.2a3.576 3.576 0 0 0-1.772-.351 1.352 1.352 0 0 0-.472.1.67.67 0 0 0-.166 1.192 3.151 3.151 0 0 0 .77.431 13.748 13.748 0 0 1 1.4.635 2.519 2.519 0 0 1 .82 3.821z" transform="translate(-1956.983 -649.455)"/>
        </g>
    </g>
</svg>
