<svg xmlns="http://www.w3.org/2000/svg" xmlns:xlink="http://www.w3.org/1999/xlink" width="16" height="16" viewBox="0 0 16 16">
    <defs>
        <path id="hhlxmtm54a" d="M0 0L16 0 16 16 0 16z"/>
    </defs>
    <g fill="none" fill-rule="evenodd">
        <g>
            <g transform="translate(-325 -40) translate(325 40)">
                <mask id="1sp5k8pgdb" fill="#fff">
                    <use xlink:href="#hhlxmtm54a"/>
                </mask>
                <path fill="#313131" d="M10.86 8.012c.006-1.544-1.276-2.805-2.856-2.81-1.585-.006-2.875 1.242-2.882 2.784-.005 1.544 1.275 2.805 2.856 2.811 1.582.006 2.877-1.245 2.882-2.785m4.894-2.073c-.175.158-.372.292-.561.435-1.11.842-1.115.842-1.066 2.2.005.137.112.305.226.399.429.355.874.693 1.327 1.021.303.22.346.448.15.768-.5.814-.987 1.635-1.46 2.465-.197.35-.441.425-.799.256-.199-.094-.408-.167-.613-.248-1.272-.503-1.277-.509-2.432.242-.117.076-.197.257-.224.4-.099.542-.18 1.085-.244 1.63-.042.348-.218.495-.572.493-.991-.009-1.982-.009-2.974 0-.346.003-.552-.12-.584-.477-.017-.198-.064-.394-.088-.593-.169-1.399-.166-1.404-1.427-2.048-.124-.063-.327-.046-.467.003-.546.192-1.084.402-1.617.626-.315.133-.52.05-.681-.226-.5-.852-1-1.704-1.514-2.55-.181-.302-.13-.522.151-.73.437-.32.88-.637 1.283-.994.149-.132.23-.366.279-.568.244-1.011-.3-1.602-1.112-2.135-1.004-.66-.849-.596-.31-1.527.369-.638.771-1.259 1.117-1.907.242-.452.536-.562.986-.308.132.073.286.11.428.166 1.295.51 1.298.516 2.478-.203.118-.071.211-.246.237-.387.105-.556.185-1.117.258-1.678.042-.325.214-.465.544-.463C7.48.006 8.489.008 9.497 0c.36-.003.534.155.564.5.018.215.064.428.092.642.178 1.375.187 1.4 1.442 1.989.125.059.327.026.47-.027.545-.194 1.07-.44 1.623-.605.172-.052.509.03.592.16.568.89 1.09 1.808 1.625 2.718.033.056.05.121.095.231-.073.1-.141.235-.246.33z" mask="url(#1sp5k8pgdb)"/>
            </g>
        </g>
    </g>
</svg>
