<svg xmlns="http://www.w3.org/2000/svg" width="16" height="13" viewBox="0 0 16 13">
    <g fill="none" fill-rule="evenodd">
        <g fill="#FB5E5E" fill-rule="nonzero">
            <g>
                <path d="M8.84 0C5.288 0 2.417 2.91 2.417 6.5H.273l2.782 2.813.05.105L5.987 6.5H3.844c0-2.791 2.24-5.056 5-5.056s5 2.265 5 5.056-2.24 5.056-5 5.056c-1.382 0-2.628-.571-3.532-1.485l-1.01 1.022C5.461 12.271 7.065 13 8.84 13c3.553 0 6.432-2.91 6.432-6.5S12.394 0 8.84 0zm-.71 3.611v3.611l3.057 1.835.514-.878-2.5-1.498V3.61H8.13z" transform="translate(-217 -247) translate(217 247)"/>
            </g>
        </g>
    </g>
</svg>
