<svg xmlns="http://www.w3.org/2000/svg" width="19.152" height="19.151" viewBox="0 0 19.152 19.151">
    <g data-name="그룹 765">
        <path data-name="Clip 2" d="M0 9.576a9.576 9.576 0 0 0 9.576 9.576 9.576 9.576 0 0 0 9.576-9.576A9.576 9.576 0 0 0 9.576 0 9.576 9.576 0 0 0 0 9.576" style="fill:#fff"/>
        <path data-name="Fill 4" d="M0 .337s5.956-1.752 4.4 2.732c0 0 2-.08.983 1.758" transform="translate(12.641 .401)" style="fill:#fff"/>
        <path data-name="Fill 8" d="M9.828 7.73a.31.31 0 0 1-.29-.2 1.42 1.42 0 0 0-1.314-.929 1.4 1.4 0 0 0-1.309.914.308.308 0 0 1-.4.179.322.322 0 0 1-.174-.414 2.021 2.021 0 0 1 1.883-1.317 2.025 2.025 0 0 1 1.6.809 2 2 0 0 1 3.491.507.322.322 0 0 1-.174.414.308.308 0 0 1-.4-.179 1.4 1.4 0 0 0-1.31-.913 1.419 1.419 0 0 0-1.316.925.311.311 0 0 1-.29.2"/>
        <path data-name="Fill 10" d="M7.973 3.537H1.721A1.745 1.745 0 0 1 0 1.768 1.745 1.745 0 0 1 1.721 0h6.252a1.745 1.745 0 0 1 1.721 1.768 1.745 1.745 0 0 1-1.721 1.769" transform="translate(4.931 11.078)" style="fill:#f5881f"/>
        <path data-name="Fill 12" d="M7.421.794H.386A.392.392 0 0 1 0 .4.392.392 0 0 1 .386 0h7.035a.392.392 0 0 1 .386.4.392.392 0 0 1-.386.4" transform="translate(5.876 12.457)" style="fill:#ae4f08"/>
        <path data-name="Fill 14" d="M8.426 9.654a.307.307 0 0 1-.3.311.307.307 0 0 1-.3-.311.307.307 0 0 1 .3-.311.307.307 0 0 1 .3.311"/>
        <path data-name="Fill 16" d="M8.129 10.138a.479.479 0 0 1-.472-.485.479.479 0 0 1 .472-.485.479.479 0 0 1 .471.485.479.479 0 0 1-.471.485zm0-.621a.137.137 0 1 0 .128.136.135.135 0 0 0-.128-.137z"/>
        <path data-name="Fill 18" d="M11.521 9.654a.307.307 0 0 1-.3.311.307.307 0 0 1-.3-.311.307.307 0 0 1 .3-.311.307.307 0 0 1 .3.311"/>
        <path data-name="Fill 20" d="M11.223 10.138a.479.479 0 0 1-.472-.485.479.479 0 0 1 .472-.485.479.479 0 0 1 .471.485.479.479 0 0 1-.471.485zm0-.621a.137.137 0 1 0 .128.136.135.135 0 0 0-.128-.137z"/>
    </g>
</svg>
