<svg xmlns="http://www.w3.org/2000/svg" xmlns:xlink="http://www.w3.org/1999/xlink" width="47" height="44" viewBox="0 0 47 44">
    <defs>
        <path id="xjo7s8m4ka" d="M0.398 0L46.398 0 46.398 44 0.398 44z"/>
    </defs>
    <g fill="none" fill-rule="evenodd" opacity=".727">
        <g>
            <g transform="translate(-74 -232) translate(74 232)">
                <mask id="9kpci7x9cb" fill="#fff">
                    <use xlink:href="#xjo7s8m4ka"/>
                </mask>
                <path fill="#CFCECF" d="M38.49 11.726H8.725c-.855 0-1.549-.672-1.549-1.501 0-.83.694-1.502 1.549-1.502H38.49c.855 0 1.548.673 1.548 1.502s-.693 1.5-1.548 1.5m0 6.391H8.724c-.855 0-1.549-.672-1.549-1.501 0-.829.694-1.5 1.549-1.5H38.49c.855 0 1.548.671 1.548 1.5 0 .83-.693 1.501-1.548 1.501M28.44 24.823H8.724c-.855 0-1.549-.673-1.549-1.502s.694-1.5 1.549-1.5H28.44c.855 0 1.548.671 1.548 1.5 0 .83-.693 1.502-1.548 1.502M38.937 0H7.859C3.74 0 .398 3.238.398 7.233v29.534C.398 40.762 3.738 44 7.859 44h31.078c4.12 0 7.461-3.238 7.461-7.233V7.233c0-3.995-3.34-7.233-7.461-7.233" mask="url(#9kpci7x9cb)"/>
            </g>
        </g>
    </g>
</svg>
