<svg xmlns="http://www.w3.org/2000/svg" width="24.797" height="22.945">
    <defs>
        <style>
            .cls-4{fill:#ffca17}
        </style>
    </defs>
    <g id="Icon_main_my_party_tranperent" data-name="Icon / main / my party tranperent" transform="translate(537.328 -634.052)">
        <path id="패스_190" data-name="패스 190" d="M-518.127 639.861h2.6a2.151 2.151 0 0 1 2.15 2.15V654a2.151 2.151 0 0 1-2.15 2.15h-14.051a2.151 2.151 0 0 1-2.15-2.15v-2.809" style="stroke:#313131;stroke-miterlimit:10;stroke-width:1.7px;fill:none"/>
        <g id="Group-2">
            <g id="Rectangle-2">
                <rect id="사각형_313" data-name="사각형 313" width="20.051" height="17.986" rx="3" transform="translate(-537.328 634.052)" style="fill:none"/>
                <rect id="사각형_314" data-name="사각형 314" width="18.351" height="16.286" rx="2.15" transform="translate(-536.478 634.902)" style="fill:#313131;stroke:#313131;stroke-miterlimit:10;stroke-width:1.7px"/>
            </g>
        </g>
        <g id="Group_9_Copy" data-name="Group 9 Copy">
            <path id="Fill_1" data-name="Fill 1" class="cls-4" d="M-524.707 640.308a2.4 2.4 0 0 1-2.355 2.44 2.4 2.4 0 0 1-2.356-2.44 2.4 2.4 0 0 1 2.356-2.44 2.4 2.4 0 0 1 2.355 2.44"/>
            <path id="Fill_5" data-name="Fill 5" class="cls-4" d="M-523.518 647.574h-7.129a.582.582 0 0 1-.571-.592 3.625 3.625 0 0 1 3.559-3.688h1.151a3.625 3.625 0 0 1 3.559 3.688.582.582 0 0 1-.569.592"/>
        </g>
    </g>
</svg>
