<svg xmlns="http://www.w3.org/2000/svg" xmlns:xlink="http://www.w3.org/1999/xlink" width="18" height="23" viewBox="0 0 18 23">
    <defs>
        <path id="mobto16vza" d="M0 0.059L16.842 0.059 16.842 14.93 0 14.93z"/>
    </defs>
    <g fill="none" fill-rule="evenodd">
        <g>
            <g>
                <g transform="translate(-41 -348) translate(41 348) translate(0 1)">
                    <mask id="5tqsfv4u4b" fill="#fff">
                        <use xlink:href="#mobto16vza"/>
                    </mask>
                    <path fill="#1412C0" d="M.005 11.286c-.001-.024-.004-.048-.004-.071 0-2.964-.004-5.927.004-8.891C.007 1.534.311.878.947.412c.64-.47 1.418-.468 2.09-.012 1.599 1.086 3.196 2.172 4.794 3.26 2.662 1.81 5.319 3.629 7.989 5.426 1.26.849 1.355 2.82.287 3.806-.128.12-.273.215-.417.312l-2.058 1.4c-.033.024-.072.044-.107.066-.266.114-.55.141-.83.19-.445.076-.898.082-1.345.058-.895-.048-1.751-.267-2.567-.652-.626-.297-1.198-.68-1.714-1.147-.238-.215-.469-.438-.72-.638-.714-.565-1.503-.974-2.37-1.223-.474-.137-.955-.217-1.446-.251-.818-.057-1.617.038-2.403.27-.041.01-.082.03-.125.01" mask="url(#5tqsfv4u4b)"/>
                </g>
                <path fill="#0554F8" d="M.004 12.323c.407-.126.823-.209 1.247-.263.409-.052.817-.072 1.227-.053.446.02.888.08 1.324.179.651.147 1.268.38 1.851.695.448.24.867.523 1.249.855.421.367.838.738 1.317 1.035.634.391 1.31.69 2.036.88.443.115.892.188 1.349.222.321.024.643.025.964.01.456-.021.908-.093 1.351-.205.026-.006.054-.008.081-.01-.01.032-.045.038-.068.054l-6.54 4.249L7.34 20c-.056.001-.084-.041-.118-.073-.549-.51-1.154-.948-1.835-1.276-.731-.355-1.503-.589-2.318-.685-.405-.048-.81-.072-1.217-.053-.558.025-1.11.107-1.649.258-.064.017-.126.052-.198.031-.002-.027-.004-.053-.004-.08v-5.718c0-.027.002-.054.004-.08" transform="translate(-41 -348) translate(41 348)"/>
                <path fill="#12BDF1" d="M.004 18.311c.375-.12.76-.198 1.151-.25.385-.051.773-.071 1.161-.056.737.03 1.454.165 2.146.421.534.197 1.037.456 1.507.774.371.25.706.541 1.031.846L5.555 21c-.856.562-1.711 1.122-2.566 1.686-.366.241-.767.35-1.202.303-.467-.049-.862-.259-1.18-.6-.413-.444-.61-.972-.607-1.575.002-.795 0-1.591 0-2.387 0-.038.002-.077.004-.116" transform="translate(-41 -348) translate(41 348)"/>
            </g>
        </g>
    </g>
</svg>
