<svg xmlns="http://www.w3.org/2000/svg" width="12" height="24" viewBox="0 0 12 24">
    <g fill="none" fill-rule="evenodd">
        <g fill="#E72B29">
            <path d="M53 220c-.006.193-.017.386-.017.58l-.001 21.342v.57l-2.325.267c-.406.046-.818.065-1.215.151-.364.078-.508-.048-.624-.393-1.28-3.792-2.574-7.579-3.865-11.367-.06-.174-.129-.345-.277-.501v12.837l-3.658.514v-.56l-.001-22.86c0-.194-.011-.387-.017-.58h3.504c.022.085.039.173.068.255 1.515 4.29 3.032 8.581 4.55 12.87.035.1.094.191.142.286.07-.734.071-1.446.07-2.158L49.321 220H53z" transform="translate(-41 -220)"/>
        </g>
    </g>
</svg>
