<svg xmlns="http://www.w3.org/2000/svg" xmlns:xlink="http://www.w3.org/1999/xlink" width="25" height="23" viewBox="0 0 25 23">
    <defs>
        <path id="n4rhrdrnea" d="M0 0.241L24.153 0.241 24.153 21.999 0 21.999z"/>
    </defs>
    <g fill="none" fill-rule="evenodd">
        <g>
            <g>
                <g transform="translate(-232 -173) translate(232 173) translate(0 .759)">
                    <mask id="6taazic0lb" fill="#fff">
                        <use xlink:href="#n4rhrdrnea"/>
                    </mask>
                    <path fill="#FCD100" d="M12.056 22c-2.942 0-5.884-.002-8.827 0-.934 0-1.741-.303-2.384-.994-.943-1.013-1.115-2.467-.422-3.68.94-1.647 1.895-3.286 2.843-4.93l5.003-8.668c.364-.629.725-1.259 1.092-1.887 1.245-2.133 4.196-2.135 5.437.001 1.525 2.628 3.038 5.262 4.557 7.893 1.453 2.518 2.908 5.035 4.36 7.554 1.097 1.901.038 4.231-2.116 4.654-.23.045-.461.056-.695.056h-8.848z" mask="url(#6taazic0lb)"/>
                </g>
                <path fill="#FCD100" d="M12.074 20.194c-2.774 0-5.548-.001-8.322.002-.362 0-.634-.144-.813-.452-.184-.317-.164-.636.018-.952 1.33-2.298 2.656-4.597 3.983-6.895 1.428-2.474 2.863-4.945 4.28-7.426.356-.624.996-.687 1.414-.379.152.112.235.274.326.431 1.983 3.435 3.964 6.871 5.946 10.307l2.296 3.974c.378.656-.046 1.39-.805 1.39h-8.323" transform="translate(-232 -173) translate(232 173)"/>
                <path fill="#000" d="M10.765 9.698c0-.21-.023-.573.005-.933.069-.872.918-1.384 1.735-1.064.25.099.402.283.493.529.163.437.185.893.173 1.349-.029 1.11-.161 2.212-.26 3.317-.065.727-.083 1.46-.222 2.179-.029.15-.078.3-.136.442-.127.309-.369.433-.698.415-.296-.016-.47-.176-.574-.441-.186-.473-.21-.975-.245-1.47-.1-1.39-.176-2.781-.271-4.323M10.75 18.526c-.002-.686.522-1.212 1.207-1.212.681.003 1.22.537 1.217 1.209-.002.695-.517 1.204-1.212 1.198-.709-.005-1.21-.498-1.212-1.195" transform="translate(-232 -173) translate(232 173)"/>
            </g>
        </g>
    </g>
</svg>
