<svg xmlns="http://www.w3.org/2000/svg" xmlns:xlink="http://www.w3.org/1999/xlink" width="12" height="12" viewBox="0 0 12 12">
    <defs>
        <path id="32m653xz9a" d="M0 0.001L11.594 0.001 11.594 11.588 0 11.588z"/>
    </defs>
    <g fill="none" fill-rule="evenodd">
        <g>
            <g transform="translate(-106 -186) translate(106 186)">
                <mask id="59ml0b7u8b" fill="#fff">
                    <use xlink:href="#32m653xz9a"/>
                </mask>
                <path fill="#FFBC26" fill-rule="nonzero" d="M5.244 4.035h1.113v-1.12H5.244v1.12zm-.008 4.639h1.115V5.24H5.236v3.433zM0 6.443V5.139c.021-.055.052-.108.061-.165.5-3.206 3.33-5.342 6.524-4.92 2.737.36 4.878 2.678 5.003 5.415.129 2.825-1.735 5.328-4.441 5.962-.232.054-.465.105-.698.157H5.145c-.067-.022-.131-.053-.199-.066C2.483 11.07.903 9.636.187 7.242.109 6.982.062 6.71 0 6.443z" mask="url(#59ml0b7u8b)"/>
                <path fill="#FFF" d="M5.236 8.673L6.351 8.673 6.351 5.24 5.236 5.24zM5.244 4.035L6.357 4.035 6.357 2.916 5.244 2.916z" mask="url(#59ml0b7u8b)"/>
            </g>
        </g>
    </g>
</svg>
