<svg xmlns="http://www.w3.org/2000/svg" width="16" height="16" viewBox="0 0 16 16">
    <g fill="none" fill-rule="evenodd">
        <g fill="#000">
            <path d="M329.6 52.8h1.6v-6.4h-1.6v6.4zm3.2 0h1.6v-6.4h-1.6v6.4zm-4.8 1.6h8v-9.6h-8v9.6zm1.6-11.2h4.8v-1.6h-4.8v1.6zm6.4 0v-2.205c0-.55-.443-.995-1.01-.995h-5.98c-.558 0-1.01.445-1.01.995V43.2h-3.19c-.448 0-.81.355-.81.8 0 .442.354.8.8.8h1.6v10.206c0 .549.453.994.994.994h9.212c.549 0 .994-.453.994-.994V44.8h1.6c.442 0 .8-.355.8-.8 0-.442-.355-.8-.81-.8H336z" transform="translate(-324.000000, -40.000000)"/>
        </g>
    </g>
</svg>
