<svg xmlns="http://www.w3.org/2000/svg" width="41" height="45" viewBox="0 0 41 45">
    <g fill="none" fill-rule="evenodd">
        <g fill="#FFF" fill-rule="nonzero">
            <g>
                <path d="M29.36 9.995c-.275 5.238-4.743 9.266-9.984 8.992-5.237-.275-9.264-4.748-8.99-9.986.275-5.238 4.747-9.262 9.984-8.988 5.241.275 9.264 4.744 8.99 9.982M33.724 42.997L2.72 41.403c-1.37-.07-2.42-1.307-2.343-2.76.485-9.067 7.808-16.063 16.358-15.623l5.01.257c8.55.44 15.087 8.148 14.603 17.214-.078 1.454-1.254 2.576-2.624 2.506" transform="translate(-243 -232) rotate(-3 4589.955 -4540.082)"/>
            </g>
        </g>
    </g>
</svg>
